/* XPM */
static char *result[] = {
/* columns rows colors chars-per-pixel */
"64 64 5 1 ",
"  c #0C0C0C",
". c #D4423E",
"X c #FBF236",
"o c white",
"O c None",
/* pixels */
"OOOOO  oooooo  OOOOOOOOOOOOOOOOOOOOOOOOOOOOOOOOOOOOOOOOOOOOOOOOO",
"OOOOO  oooooo  OOOOOOOOOOOOOOOOOOOOOOOOOOOOOOOOOOOOOOOOOOOOOOOOO",
"OOO  oooooooooo  OOOOOOOOOOOOOOOOOOOOOOOOOOOOOOOOOOOOOOOOOOOOOOO",
"OOO  oooooooooo  OOOOOOOOOOOOOOOOOOOOOOOOOOOOOOOOOOOOOOOOOOOOOOO",
"OOO  oooooooooo  OOOOOOOOOOOOOOOOOOOOOOOOOOOOOOOOOOOOOOOOOOOOOOO",
"OOO  oooooooooo  OOOOOOOOOOOOOOOOOOOOOOOOOOOOOOOOOOOOOOOOOOOOOOO",
"OOOOO  oooooo  ..        OOOOOOOOOOOOOOOOOOOOOOOOOOOOOOOOOOOOOOO",
"OOOOO  oooooo  ..        OOOOOOOOOOOOOOOOOOOOOOOOOOOOOOOOOOOOOOO",
"OOOOOOO      ............      OOOOOOOOOOOOOOOOOOOOOOOOOOOOOOOOO",
"OOOOOOO      ............      OOOOOOOOOOOOOOOOOOOOOOOOOOOOOOOOO",
"OOOOOOOOOOO  ..................  OOOOOOOOOOOOOOOOOOOOOOOOOOOOOOO",
"OOOOOOOOOOO  ..................  OOOOOOOOOOOOOOOOOOOOOOOOOOOOOOO",
"OOOOOOOOOOOOO  ..................  OOOOOOOOOOOOOOOOOOOOOOOOOOOOO",
"OOOOOOOOOOOOO  ..................  OOOOOOOOOOOOOOOOOOOOOOOOOOOOO",
"OOOOOOOOOOOOO  ................      OOOOOOOOOOOOOOOOOOOOOOOOOOO",
"OOOOOOOOOOOOO  ................      OOOOOOOOOOOOOOOOOOOOOOOOOOO",
"OOOOOOOOOOOOOOO  ..........    oooooo    OOOOOOOOOOOOOOOOOOOOOOO",
"OOOOOOOOOOOOOOO  ..........    oooooo    OOOOOOOOOOOOOOOOOOOOOOO",
"OOOOOOOOOOOOOOO  ......    oooooooooooooo  OOOOOOOOOOOOOOOOOOOOO",
"OOOOOOOOOOOOOOO  ......    oooooooooooooo  OOOOOOOOOOOOOOOOOOOOO",
"OOOOOOOOOOOOOOO  ....  oooooooo            OOOOOOOOOOOOOOOOOOOOO",
"OOOOOOOOOOOOOOO  ....  oooooooo            OOOOOOOOOOOOOOOOOOOOO",
"OOOOOOOOOOOOOOO  ..  oooooooo  XXXXXXXXXX  OOOOOOOOOOOOOOOOOOOOO",
"OOOOOOOOOOOOOOO  ..  oooooooo  XXXXXXXXXX  OOOOOOOOOOOOOOOOOOOOO",
"OOOOOOOOOOOOOOOOO  oooooo    XXXXXXXXXXXXXX  OOOOOOOOOOOOOOOOOOO",
"OOOOOOOOOOOOOOOOO  oooooo    XXXXXXXXXXXXXX  OOOOOOOOOOOOOOOOOOO",
"OOOOOOOOOOOOOOO  oooooo  XXXXXX  XX  XXXXXXXX  OOOOOOOOOOOOOOOOO",
"OOOOOOOOOOOOOOO  oooooo  XXXXXX  XX  XXXXXXXX  OOOOOOOOOOOOOOOOO",
"OOOOOOOOOOOOOOO  oooo  XXXXXXXX  XX  XXXXXXXXXX  OOOOOOOOOOOOOOO",
"OOOOOOOOOOOOOOO  oooo  XXXXXXXX  XX  XXXXXXXXXX  OOOOOOOOOOOOOOO",
"OOOOOOOOOOOOOOO  oo  XXXXXXXXXXXXXXXXXXXXXXXXXXXX  OOOOOOOOOOOOO",
"OOOOOOOOOOOOOOO  oo  XXXXXXXXXXXXXXXXXXXXXXXXXXXX  OOOOOOOOOOOOO",
"OOOOOOOOOOOOOOOOO  XXXXXXXXXXXXXXXXXXXXXXXXXXXX  OOOOOOOOOOOOOOO",
"OOOOOOOOOOOOOOOOO  XXXXXXXXXXXXXXXXXXXXXXXXXXXX  OOOOOOOOOOOOOOO",
"OOOOOOOOOOOOOOOOO  XXXXXXXXXXXXXXXXXXXXXXXXXX  OOOOOOOOOOOOOOOOO",
"OOOOOOOOOOOOOOOOO  XXXXXXXXXXXXXXXXXXXXXXXXXX  OOOOOOOOOOOOOOOOO",
"OOOOOOOOOOOOOOOOO  XXXXXXXXXXXXXXXXXXXXXXXX  OOOOOOOOOOOOOOOOOOO",
"OOOOOOOOOOOOOOOOO  XXXXXXXXXXXXXXXXXXXXXXXX  OOOOOOOOOOOOOOOOOOO",
"OOOOOOOOOOOOOOOOO  XXXXXXXXXXXXXXXXXXXXXXXXXX    OOOOOOOOOOOOOOO",
"OOOOOOOOOOOOOOOOO  XXXXXXXXXXXXXXXXXXXXXXXXXX    OOOOOOOOOOOOOOO",
"OOOOOOOOOOOOOOOOO  XXXXXXXXXXXXXXXXXXXXXXXXXXXXXX  OOOOOOOOOOOOO",
"OOOOOOOOOOOOOOOOO  XXXXXXXXXXXXXXXXXXXXXXXXXXXXXX  OOOOOOOOOOOOO",
"OOOOOOOOOOOOOOOOOOO  XXXXXXXXXXXXXXXXXXXXXXXXXX  OOOOOOOOOOOOOOO",
"OOOOOOOOOOOOOOOOOOO  XXXXXXXXXXXXXXXXXXXXXXXXXX  OOOOOOOOOOOOOOO",
"OOOOOOOOOOOOOOOOOOOOO  XXXXXXXXXXXXXXXXXXXXXX  OOOOOOOOOOOOOOOOO",
"OOOOOOOOOOOOOOOOOOOOO  XXXXXXXXXXXXXXXXXXXXXX  OOOOOOOOOOOOOOOOO",
"OOOOOOOOOOOOOOOOOOOOOOO  XXXXXXXXXXXXXXXXXX  OOOOOOOOOOOOOOOOOOO",
"OOOOOOOOOOOOOOOOOOOOOOO  XXXXXXXXXXXXXXXXXX  OOOOOOOOOOOOOOOOOOO",
"OOOOOOOOOOOOOOOOOOOOOOOOO    XXXXXXXXXX    OOOOOOOOOOOOOOOOOOOOO",
"OOOOOOOOOOOOOOOOOOOOOOOOO    XXXXXXXXXX    OOOOOOOOOOOOOOOOOOOOO",
"OOOOOOOOOOOOOOOOOOOOOOOOOOOOO          OOOOOOOOOOOOOOOOOOOOOOOOO",
"OOOOOOOOOOOOOOOOOOOOOOOOOOOOO          OOOOOOOOOOOOOOOOOOOOOOOOO",
"OOOOOOOOOOOOOOOOOOOOOOOOOOOOOOOOOOOOOOOOOOOOOOOOOOOOOOOOOOOOOOOO",
"OOOOOOOOOOOOOOOOOOOOOOOOOOOOOOOOOOOOOOOOOOOOOOOOOOOOOOOOOOOOOOOO",
"OOOOOOOOOOOOOOOOOOOOOOOOOOOOOOOOOOOOOOOOOOOOOOOOOOOOOOOOOOOOOOOO",
"OOOOOOOOOOOOOOOOOOOOOOOOOOOOOOOOOOOOOOOOOOOOOOOOOOOOOOOOOOOOOOOO",
"OOOOOOOOOOOOOOOOOOOOOOOOOOOOOOOOOOOOOOOOOOOOOOOOOOOOOOOOOOOOOOOO",
"OOOOOOOOOOOOOOOOOOOOOOOOOOOOOOOOOOOOOOOOOOOOOOOOOOOOOOOOOOOOOOOO",
"OOOOOOOOOOOOOOOOOOOOOOOOOOOOOOOOOOOOOOOOOOOOOOOOOOOOOOOOOOOOOOOO",
"OOOOOOOOOOOOOOOOOOOOOOOOOOOOOOOOOOOOOOOOOOOOOOOOOOOOOOOOOOOOOOOO",
"OOOOOOOOOOOOOOOOOOOOOOOOOOOOOOOOOOOOOOOOOOOOOOOOOOOOOOOOOOOOOOOO",
"OOOOOOOOOOOOOOOOOOOOOOOOOOOOOOOOOOOOOOOOOOOOOOOOOOOOOOOOOOOOOOOO",
"OOOOOOOOOOOOOOOOOOOOOOOOOOOOOOOOOOOOOOOOOOOOOOOOOOOOOOOOOOOOOOOO",
"OOOOOOOOOOOOOOOOOOOOOOOOOOOOOOOOOOOOOOOOOOOOOOOOOOOOOOOOOOOOOOOO"
};
