/* XPM */
static char *result[] = {
/* columns rows colors chars-per-pixel */
"64 64 5 1 ",
"  c #0C0C0C",
". c #D4423E",
"X c #FBF236",
"o c white",
"O c None",
/* pixels */
"OOOOO      OOOOOOOOOOOOOOOOOOOOOOOOOOOOOOOOOOOOOOOOOOOOOOOOOOOOO",
"OOOOO      OOOOOOOOOOOOOOOOOOOOOOOOOOOOOOOOOOOOOOOOOOOOOOOOOOOOO",
"OOO  oooooo  OOOOOOOOOOOOOOOOOOOOOOOOOOOOOOOOOOOOOOOOOOOOOOOOOOO",
"OOO  oooooo  OOOOOOOOOOOOOOOOOOOOOOOOOOOOOOOOOOOOOOOOOOOOOOOOOOO",
"O  oooooooooo  OOOOOOOOOOOOOOOOOOOOOOOOOOOOOOOOOOOOOOOOOOOOOOOOO",
"O  oooooooooo  OOOOOOOOOOOOOOOOOOOOOOOOOOOOOOOOOOOOOOOOOOOOOOOOO",
"O  oooooooooo  OOOOOOOOOOOOOOOOOOOOOOOOOOOOOOOOOOOOOOOOOOOOOOOOO",
"O  oooooooooo  OOOOOOOOOOOOOOOOOOOOOOOOOOOOOOOOOOOOOOOOOOOOOOOOO",
"OOO  oooooo    OOOOOOOOOO      OOOOOOOOOOOOOOOOOOOOOOOOOOOOOOOOO",
"OOO  oooooo    OOOOOOOOOO      OOOOOOOOOOOOOOOOOOOOOOOOOOOOOOOOO",
"OOOOO      ....          ......  OOOOOOOOOOOOOOOOOOOOOOOOOOOOOOO",
"OOOOO      ....          ......  OOOOOOOOOOOOOOOOOOOOOOOOOOOOOOO",
"OOOOOOOOOOO  ....................  OOOOOOOOOOOOOOOOOOOOOOOOOOOOO",
"OOOOOOOOOOO  ....................  OOOOOOOOOOOOOOOOOOOOOOOOOOOOO",
"OOOOOOOOOOOOO  ................      OOOOOOOOOOOOOOOOOOOOOOOOOOO",
"OOOOOOOOOOOOO  ................      OOOOOOOOOOOOOOOOOOOOOOOOOOO",
"OOOOOOOOOOOOO  ............    oooooo    OOOOOOOOOOOOOOOOOOOOOOO",
"OOOOOOOOOOOOO  ............    oooooo    OOOOOOOOOOOOOOOOOOOOOOO",
"OOOOOOOOOOOOOOO  ......    oooooooooooooo  OOOOOOOOOOOOOOOOOOOOO",
"OOOOOOOOOOOOOOO  ......    oooooooooooooo  OOOOOOOOOOOOOOOOOOOOO",
"OOOOOOOOOOOOOOO  ....  oooooooo            OOOOOOOOOOOOOOOOOOOOO",
"OOOOOOOOOOOOOOO  ....  oooooooo            OOOOOOOOOOOOOOOOOOOOO",
"OOOOOOOOOOOOOOO  ..  oooooooo  XXXXXXXXXX  OOOOOOOOOOOOOOOOOOOOO",
"OOOOOOOOOOOOOOO  ..  oooooooo  XXXXXXXXXX  OOOOOOOOOOOOOOOOOOOOO",
"OOOOOOOOOOOOOOOOO  oooooo    XXXXXXXXXXXXXX  OOOOOOOOOOOOOOOOOOO",
"OOOOOOOOOOOOOOOOO  oooooo    XXXXXXXXXXXXXX  OOOOOOOOOOOOOOOOOOO",
"OOOOOOOOOOOOOOO  oooooo  XXXXXX  XX  XXXXXXXX  OOOOOOOOOOOOOOOOO",
"OOOOOOOOOOOOOOO  oooooo  XXXXXX  XX  XXXXXXXX  OOOOOOOOOOOOOOOOO",
"OOOOOOOOOOOOOOO  oooo  XXXXXXXX  XX  XXXXXX  OOOOOOOOOOOOOOOOOOO",
"OOOOOOOOOOOOOOO  oooo  XXXXXXXX  XX  XXXXXX  OOOOOOOOOOOOOOOOOOO",
"OOOOOOOOOOOOOOO  oo  XXXXXXXXXXXXXXXXXXXX  OOOOOOOOOOOOOOOOOOOOO",
"OOOOOOOOOOOOOOO  oo  XXXXXXXXXXXXXXXXXXXX  OOOOOOOOOOOOOOOOOOOOO",
"OOOOOOOOOOOOOOOOO  XXXXXXXXXXXXXXXXXXXX  OOOOOOOOOOOOOOOOOOOOOOO",
"OOOOOOOOOOOOOOOOO  XXXXXXXXXXXXXXXXXXXX  OOOOOOOOOOOOOOOOOOOOOOO",
"OOOOOOOOOOOOOOOOO  XXXXXXXXXXXXXXXXXX  OOOOOOOOOOOOOOOOOOOOOOOOO",
"OOOOOOOOOOOOOOOOO  XXXXXXXXXXXXXXXXXX  OOOOOOOOOOOOOOOOOOOOOOOOO",
"OOOOOOOOOOOOOOOOO  XXXXXXXXXXXXXXXX  OOOOOOOOOOOOOOOOOOOOOOOOOOO",
"OOOOOOOOOOOOOOOOO  XXXXXXXXXXXXXXXX  OOOOOOOOOOOOOOOOOOOOOOOOOOO",
"OOOOOOOOOOOOOOOOO  XXXXXXXXXXXXXXXXXX    OOOOOOOOOOOOOOOOOOOOOOO",
"OOOOOOOOOOOOOOOOO  XXXXXXXXXXXXXXXXXX    OOOOOOOOOOOOOOOOOOOOOOO",
"OOOOOOOOOOOOOOOOO  XXXXXXXXXXXXXXXXXXXXXX      OOOOOOOOOOOOOOOOO",
"OOOOOOOOOOOOOOOOO  XXXXXXXXXXXXXXXXXXXXXX      OOOOOOOOOOOOOOOOO",
"OOOOOOOOOOOOOOOOOOO  XXXXXXXXXXXXXXXXXXXXXXXXXX  OOOOOOOOOOOOOOO",
"OOOOOOOOOOOOOOOOOOO  XXXXXXXXXXXXXXXXXXXXXXXXXX  OOOOOOOOOOOOOOO",
"OOOOOOOOOOOOOOOOOOOOO  XXXXXXXXXXXXXXXXXXXXXX  OOOOOOOOOOOOOOOOO",
"OOOOOOOOOOOOOOOOOOOOO  XXXXXXXXXXXXXXXXXXXXXX  OOOOOOOOOOOOOOOOO",
"OOOOOOOOOOOOOOOOOOOOOOO  XXXXXXXXXXXXXXXXXX  OOOOOOOOOOOOOOOOOOO",
"OOOOOOOOOOOOOOOOOOOOOOO  XXXXXXXXXXXXXXXXXX  OOOOOOOOOOOOOOOOOOO",
"OOOOOOOOOOOOOOOOOOOOOOOOO    XXXXXXXXXX    OOOOOOOOOOOOOOOOOOOOO",
"OOOOOOOOOOOOOOOOOOOOOOOOO    XXXXXXXXXX    OOOOOOOOOOOOOOOOOOOOO",
"OOOOOOOOOOOOOOOOOOOOOOOOOOOOO          OOOOOOOOOOOOOOOOOOOOOOOOO",
"OOOOOOOOOOOOOOOOOOOOOOOOOOOOO          OOOOOOOOOOOOOOOOOOOOOOOOO",
"OOOOOOOOOOOOOOOOOOOOOOOOOOOOOOOOOOOOOOOOOOOOOOOOOOOOOOOOOOOOOOOO",
"OOOOOOOOOOOOOOOOOOOOOOOOOOOOOOOOOOOOOOOOOOOOOOOOOOOOOOOOOOOOOOOO",
"OOOOOOOOOOOOOOOOOOOOOOOOOOOOOOOOOOOOOOOOOOOOOOOOOOOOOOOOOOOOOOOO",
"OOOOOOOOOOOOOOOOOOOOOOOOOOOOOOOOOOOOOOOOOOOOOOOOOOOOOOOOOOOOOOOO",
"OOOOOOOOOOOOOOOOOOOOOOOOOOOOOOOOOOOOOOOOOOOOOOOOOOOOOOOOOOOOOOOO",
"OOOOOOOOOOOOOOOOOOOOOOOOOOOOOOOOOOOOOOOOOOOOOOOOOOOOOOOOOOOOOOOO",
"OOOOOOOOOOOOOOOOOOOOOOOOOOOOOOOOOOOOOOOOOOOOOOOOOOOOOOOOOOOOOOOO",
"OOOOOOOOOOOOOOOOOOOOOOOOOOOOOOOOOOOOOOOOOOOOOOOOOOOOOOOOOOOOOOOO",
"OOOOOOOOOOOOOOOOOOOOOOOOOOOOOOOOOOOOOOOOOOOOOOOOOOOOOOOOOOOOOOOO",
"OOOOOOOOOOOOOOOOOOOOOOOOOOOOOOOOOOOOOOOOOOOOOOOOOOOOOOOOOOOOOOOO",
"OOOOOOOOOOOOOOOOOOOOOOOOOOOOOOOOOOOOOOOOOOOOOOOOOOOOOOOOOOOOOOOO",
"OOOOOOOOOOOOOOOOOOOOOOOOOOOOOOOOOOOOOOOOOOOOOOOOOOOOOOOOOOOOOOOO"
};
