/* XPM */
static char *result[] = {
/* columns rows colors chars-per-pixel */
"64 64 5 1 ",
"  c #0C0C0C",
". c #D4423E",
"X c #FBF236",
"o c white",
"O c None",
/* pixels */
"OOOOOOOOOOOOOOOOOOOOOOOOOOOOOOOOOOOOOOOOOOOOOOOOOOOOO      OOOOO",
"OOOOOOOOOOOOOOOOOOOOOOOOOOOOOOOOOOOOOOOOOOOOOOOOOOOOO      OOOOO",
"OOOOOOOOOOOOOOOOOOOOOOOOOOOOOOOOOOOOOOOOOOOOOOOOOOO  oooooo  OOO",
"OOOOOOOOOOOOOOOOOOOOOOOOOOOOOOOOOOOOOOOOOOOOOOOOOOO  oooooo  OOO",
"OOOOOOOOOOOOOOOOOOOOOOOOOOOOOOOOOOOOOOOOOOOOOOOOO  oooooooooo  O",
"OOOOOOOOOOOOOOOOOOOOOOOOOOOOOOOOOOOOOOOOOOOOOOOOO  oooooooooo  O",
"OOOOOOOOOOOOOOOOOOOOOOOOOOOOOOOOOOOOOOOOOOOOOOOOO  oooooooooo  O",
"OOOOOOOOOOOOOOOOOOOOOOOOOOOOOOOOOOOOOOOOOOOOOOOOO  oooooooooo  O",
"OOOOOOOOOOOOOOOOOOOOOOOOOOOOOOOOO      OOOOOOOOOO    oooooo  OOO",
"OOOOOOOOOOOOOOOOOOOOOOOOOOOOOOOOO      OOOOOOOOOO    oooooo  OOO",
"OOOOOOOOOOOOOOOOOOOOOOOOOOOOOOO  ......          ....      OOOOO",
"OOOOOOOOOOOOOOOOOOOOOOOOOOOOOOO  ......          ....      OOOOO",
"OOOOOOOOOOOOOOOOOOOOOOOOOOOOO  ....................  OOOOOOOOOOO",
"OOOOOOOOOOOOOOOOOOOOOOOOOOOOO  ....................  OOOOOOOOOOO",
"OOOOOOOOOOOOOOOOOOOOOOOOOOO      ................  OOOOOOOOOOOOO",
"OOOOOOOOOOOOOOOOOOOOOOOOOOO      ................  OOOOOOOOOOOOO",
"OOOOOOOOOOOOOOOOOOOOOOO    oooooo    ............  OOOOOOOOOOOOO",
"OOOOOOOOOOOOOOOOOOOOOOO    oooooo    ............  OOOOOOOOOOOOO",
"OOOOOOOOOOOOOOOOOOOOO  oooooooooooooo    ......  OOOOOOOOOOOOOOO",
"OOOOOOOOOOOOOOOOOOOOO  oooooooooooooo    ......  OOOOOOOOOOOOOOO",
"OOOOOOOOOOOOOOOOOOOOO            oooooooo  ....  OOOOOOOOOOOOOOO",
"OOOOOOOOOOOOOOOOOOOOO            oooooooo  ....  OOOOOOOOOOOOOOO",
"OOOOOOOOOOOOOOOOOOOOO  XXXXXXXXXX  oooooooo  ..  OOOOOOOOOOOOOOO",
"OOOOOOOOOOOOOOOOOOOOO  XXXXXXXXXX  oooooooo  ..  OOOOOOOOOOOOOOO",
"OOOOOOOOOOOOOOOOOOO  XXXXXXXXXXXXXX    oooooo  OOOOOOOOOOOOOOOOO",
"OOOOOOOOOOOOOOOOOOO  XXXXXXXXXXXXXX    oooooo  OOOOOOOOOOOOOOOOO",
"OOOOOOOOOOOOOOOOO  XXXXXXXX  XX  XXXXXX  oooooo  OOOOOOOOOOOOOOO",
"OOOOOOOOOOOOOOOOO  XXXXXXXX  XX  XXXXXX  oooooo  OOOOOOOOOOOOOOO",
"OOOOOOOOOOOOOOOOOOO  XXXXXX  XX  XXXXXXXX  oooo  OOOOOOOOOOOOOOO",
"OOOOOOOOOOOOOOOOOOO  XXXXXX  XX  XXXXXXXX  oooo  OOOOOOOOOOOOOOO",
"OOOOOOOOOOOOOOOOOOOOO  XXXXXXXXXXXXXXXXXXXX  oo  OOOOOOOOOOOOOOO",
"OOOOOOOOOOOOOOOOOOOOO  XXXXXXXXXXXXXXXXXXXX  oo  OOOOOOOOOOOOOOO",
"OOOOOOOOOOOOOOOOOOOOOOO  XXXXXXXXXXXXXXXXXXXX  OOOOOOOOOOOOOOOOO",
"OOOOOOOOOOOOOOOOOOOOOOO  XXXXXXXXXXXXXXXXXXXX  OOOOOOOOOOOOOOOOO",
"OOOOOOOOOOOOOOOOOOOOOOOOO  XXXXXXXXXXXXXXXXXX  OOOOOOOOOOOOOOOOO",
"OOOOOOOOOOOOOOOOOOOOOOOOO  XXXXXXXXXXXXXXXXXX  OOOOOOOOOOOOOOOOO",
"OOOOOOOOOOOOOOOOOOOOOOOOOOO  XXXXXXXXXXXXXXXX  OOOOOOOOOOOOOOOOO",
"OOOOOOOOOOOOOOOOOOOOOOOOOOO  XXXXXXXXXXXXXXXX  OOOOOOOOOOOOOOOOO",
"OOOOOOOOOOOOOOOOOOOOOOO    XXXXXXXXXXXXXXXXXX  OOOOOOOOOOOOOOOOO",
"OOOOOOOOOOOOOOOOOOOOOOO    XXXXXXXXXXXXXXXXXX  OOOOOOOOOOOOOOOOO",
"OOOOOOOOOOOOOOOOO      XXXXXXXXXXXXXXXXXXXXXX  OOOOOOOOOOOOOOOOO",
"OOOOOOOOOOOOOOOOO      XXXXXXXXXXXXXXXXXXXXXX  OOOOOOOOOOOOOOOOO",
"OOOOOOOOOOOOOOO  XXXXXXXXXXXXXXXXXXXXXXXXXX  OOOOOOOOOOOOOOOOOOO",
"OOOOOOOOOOOOOOO  XXXXXXXXXXXXXXXXXXXXXXXXXX  OOOOOOOOOOOOOOOOOOO",
"OOOOOOOOOOOOOOOOO  XXXXXXXXXXXXXXXXXXXXXX  OOOOOOOOOOOOOOOOOOOOO",
"OOOOOOOOOOOOOOOOO  XXXXXXXXXXXXXXXXXXXXXX  OOOOOOOOOOOOOOOOOOOOO",
"OOOOOOOOOOOOOOOOOOO  XXXXXXXXXXXXXXXXXX  OOOOOOOOOOOOOOOOOOOOOOO",
"OOOOOOOOOOOOOOOOOOO  XXXXXXXXXXXXXXXXXX  OOOOOOOOOOOOOOOOOOOOOOO",
"OOOOOOOOOOOOOOOOOOOOO    XXXXXXXXXX    OOOOOOOOOOOOOOOOOOOOOOOOO",
"OOOOOOOOOOOOOOOOOOOOO    XXXXXXXXXX    OOOOOOOOOOOOOOOOOOOOOOOOO",
"OOOOOOOOOOOOOOOOOOOOOOOOO          OOOOOOOOOOOOOOOOOOOOOOOOOOOOO",
"OOOOOOOOOOOOOOOOOOOOOOOOO          OOOOOOOOOOOOOOOOOOOOOOOOOOOOO",
"OOOOOOOOOOOOOOOOOOOOOOOOOOOOOOOOOOOOOOOOOOOOOOOOOOOOOOOOOOOOOOOO",
"OOOOOOOOOOOOOOOOOOOOOOOOOOOOOOOOOOOOOOOOOOOOOOOOOOOOOOOOOOOOOOOO",
"OOOOOOOOOOOOOOOOOOOOOOOOOOOOOOOOOOOOOOOOOOOOOOOOOOOOOOOOOOOOOOOO",
"OOOOOOOOOOOOOOOOOOOOOOOOOOOOOOOOOOOOOOOOOOOOOOOOOOOOOOOOOOOOOOOO",
"OOOOOOOOOOOOOOOOOOOOOOOOOOOOOOOOOOOOOOOOOOOOOOOOOOOOOOOOOOOOOOOO",
"OOOOOOOOOOOOOOOOOOOOOOOOOOOOOOOOOOOOOOOOOOOOOOOOOOOOOOOOOOOOOOOO",
"OOOOOOOOOOOOOOOOOOOOOOOOOOOOOOOOOOOOOOOOOOOOOOOOOOOOOOOOOOOOOOOO",
"OOOOOOOOOOOOOOOOOOOOOOOOOOOOOOOOOOOOOOOOOOOOOOOOOOOOOOOOOOOOOOOO",
"OOOOOOOOOOOOOOOOOOOOOOOOOOOOOOOOOOOOOOOOOOOOOOOOOOOOOOOOOOOOOOOO",
"OOOOOOOOOOOOOOOOOOOOOOOOOOOOOOOOOOOOOOOOOOOOOOOOOOOOOOOOOOOOOOOO",
"OOOOOOOOOOOOOOOOOOOOOOOOOOOOOOOOOOOOOOOOOOOOOOOOOOOOOOOOOOOOOOOO",
"OOOOOOOOOOOOOOOOOOOOOOOOOOOOOOOOOOOOOOOOOOOOOOOOOOOOOOOOOOOOOOOO"
};
