/* XPM */
static char *result[] = {
/* columns rows colors chars-per-pixel */
"64 64 5 1 ",
"  c #0C0C0C",
". c #D4423E",
"X c #FBF236",
"o c white",
"O c None",
/* pixels */
"OOOOOOOOOOOOOOOOOOOOOOOOOOOOOOOOOOOOOOOOOOOOOOOOO  oooooo  OOOOO",
"OOOOOOOOOOOOOOOOOOOOOOOOOOOOOOOOOOOOOOOOOOOOOOOOO  oooooo  OOOOO",
"OOOOOOOOOOOOOOOOOOOOOOOOOOOOOOOOOOOOOOOOOOOOOOO  oooooooooo  OOO",
"OOOOOOOOOOOOOOOOOOOOOOOOOOOOOOOOOOOOOOOOOOOOOOO  oooooooooo  OOO",
"OOOOOOOOOOOOOOOOOOOOOOOOOOOOOOOOOOOOOOOOOOOOOOO  oooooooooo  OOO",
"OOOOOOOOOOOOOOOOOOOOOOOOOOOOOOOOOOOOOOOOOOOOOOO  oooooooooo  OOO",
"OOOOOOOOOOOOOOOOOOOOOOOOOOOOOOOOOOOOOOO        ..  oooooo  OOOOO",
"OOOOOOOOOOOOOOOOOOOOOOOOOOOOOOOOOOOOOOO        ..  oooooo  OOOOO",
"OOOOOOOOOOOOOOOOOOOOOOOOOOOOOOOOO      ............      OOOOOOO",
"OOOOOOOOOOOOOOOOOOOOOOOOOOOOOOOOO      ............      OOOOOOO",
"OOOOOOOOOOOOOOOOOOOOOOOOOOOOOOO  ..................  OOOOOOOOOOO",
"OOOOOOOOOOOOOOOOOOOOOOOOOOOOOOO  ..................  OOOOOOOOOOO",
"OOOOOOOOOOOOOOOOOOOOOOOOOOOOO  ..................  OOOOOOOOOOOOO",
"OOOOOOOOOOOOOOOOOOOOOOOOOOOOO  ..................  OOOOOOOOOOOOO",
"OOOOOOOOOOOOOOOOOOOOOOOOOOO      ................  OOOOOOOOOOOOO",
"OOOOOOOOOOOOOOOOOOOOOOOOOOO      ................  OOOOOOOOOOOOO",
"OOOOOOOOOOOOOOOOOOOOOOO    oooooo    ..........  OOOOOOOOOOOOOOO",
"OOOOOOOOOOOOOOOOOOOOOOO    oooooo    ..........  OOOOOOOOOOOOOOO",
"OOOOOOOOOOOOOOOOOOOOO  oooooooooooooo    ......  OOOOOOOOOOOOOOO",
"OOOOOOOOOOOOOOOOOOOOO  oooooooooooooo    ......  OOOOOOOOOOOOOOO",
"OOOOOOOOOOOOOOOOOOOOO            oooooooo  ....  OOOOOOOOOOOOOOO",
"OOOOOOOOOOOOOOOOOOOOO            oooooooo  ....  OOOOOOOOOOOOOOO",
"OOOOOOOOOOOOOOOOOOOOO  XXXXXXXXXX  oooooooo  ..  OOOOOOOOOOOOOOO",
"OOOOOOOOOOOOOOOOOOOOO  XXXXXXXXXX  oooooooo  ..  OOOOOOOOOOOOOOO",
"OOOOOOOOOOOOOOOOOOO  XXXXXXXXXXXXXX    oooooo  OOOOOOOOOOOOOOOOO",
"OOOOOOOOOOOOOOOOOOO  XXXXXXXXXXXXXX    oooooo  OOOOOOOOOOOOOOOOO",
"OOOOOOOOOOOOOOOOO  XXXXXXXX  XX  XXXXXX  oooooo  OOOOOOOOOOOOOOO",
"OOOOOOOOOOOOOOOOO  XXXXXXXX  XX  XXXXXX  oooooo  OOOOOOOOOOOOOOO",
"OOOOOOOOOOOOOOO  XXXXXXXXXX  XX  XXXXXXXX  oooo  OOOOOOOOOOOOOOO",
"OOOOOOOOOOOOOOO  XXXXXXXXXX  XX  XXXXXXXX  oooo  OOOOOOOOOOOOOOO",
"OOOOOOOOOOOOO  XXXXXXXXXXXXXXXXXXXXXXXXXXXX  oo  OOOOOOOOOOOOOOO",
"OOOOOOOOOOOOO  XXXXXXXXXXXXXXXXXXXXXXXXXXXX  oo  OOOOOOOOOOOOOOO",
"OOOOOOOOOOOOOOO  XXXXXXXXXXXXXXXXXXXXXXXXXXXX  OOOOOOOOOOOOOOOOO",
"OOOOOOOOOOOOOOO  XXXXXXXXXXXXXXXXXXXXXXXXXXXX  OOOOOOOOOOOOOOOOO",
"OOOOOOOOOOOOOOOOO  XXXXXXXXXXXXXXXXXXXXXXXXXX  OOOOOOOOOOOOOOOOO",
"OOOOOOOOOOOOOOOOO  XXXXXXXXXXXXXXXXXXXXXXXXXX  OOOOOOOOOOOOOOOOO",
"OOOOOOOOOOOOOOOOOOO  XXXXXXXXXXXXXXXXXXXXXXXX  OOOOOOOOOOOOOOOOO",
"OOOOOOOOOOOOOOOOOOO  XXXXXXXXXXXXXXXXXXXXXXXX  OOOOOOOOOOOOOOOOO",
"OOOOOOOOOOOOOOO    XXXXXXXXXXXXXXXXXXXXXXXXXX  OOOOOOOOOOOOOOOOO",
"OOOOOOOOOOOOOOO    XXXXXXXXXXXXXXXXXXXXXXXXXX  OOOOOOOOOOOOOOOOO",
"OOOOOOOOOOOOO  XXXXXXXXXXXXXXXXXXXXXXXXXXXXXX  OOOOOOOOOOOOOOOOO",
"OOOOOOOOOOOOO  XXXXXXXXXXXXXXXXXXXXXXXXXXXXXX  OOOOOOOOOOOOOOOOO",
"OOOOOOOOOOOOOOO  XXXXXXXXXXXXXXXXXXXXXXXXXX  OOOOOOOOOOOOOOOOOOO",
"OOOOOOOOOOOOOOO  XXXXXXXXXXXXXXXXXXXXXXXXXX  OOOOOOOOOOOOOOOOOOO",
"OOOOOOOOOOOOOOOOO  XXXXXXXXXXXXXXXXXXXXXX  OOOOOOOOOOOOOOOOOOOOO",
"OOOOOOOOOOOOOOOOO  XXXXXXXXXXXXXXXXXXXXXX  OOOOOOOOOOOOOOOOOOOOO",
"OOOOOOOOOOOOOOOOOOO  XXXXXXXXXXXXXXXXXX  OOOOOOOOOOOOOOOOOOOOOOO",
"OOOOOOOOOOOOOOOOOOO  XXXXXXXXXXXXXXXXXX  OOOOOOOOOOOOOOOOOOOOOOO",
"OOOOOOOOOOOOOOOOOOOOO    XXXXXXXXXX    OOOOOOOOOOOOOOOOOOOOOOOOO",
"OOOOOOOOOOOOOOOOOOOOO    XXXXXXXXXX    OOOOOOOOOOOOOOOOOOOOOOOOO",
"OOOOOOOOOOOOOOOOOOOOOOOOO          OOOOOOOOOOOOOOOOOOOOOOOOOOOOO",
"OOOOOOOOOOOOOOOOOOOOOOOOO          OOOOOOOOOOOOOOOOOOOOOOOOOOOOO",
"OOOOOOOOOOOOOOOOOOOOOOOOOOOOOOOOOOOOOOOOOOOOOOOOOOOOOOOOOOOOOOOO",
"OOOOOOOOOOOOOOOOOOOOOOOOOOOOOOOOOOOOOOOOOOOOOOOOOOOOOOOOOOOOOOOO",
"OOOOOOOOOOOOOOOOOOOOOOOOOOOOOOOOOOOOOOOOOOOOOOOOOOOOOOOOOOOOOOOO",
"OOOOOOOOOOOOOOOOOOOOOOOOOOOOOOOOOOOOOOOOOOOOOOOOOOOOOOOOOOOOOOOO",
"OOOOOOOOOOOOOOOOOOOOOOOOOOOOOOOOOOOOOOOOOOOOOOOOOOOOOOOOOOOOOOOO",
"OOOOOOOOOOOOOOOOOOOOOOOOOOOOOOOOOOOOOOOOOOOOOOOOOOOOOOOOOOOOOOOO",
"OOOOOOOOOOOOOOOOOOOOOOOOOOOOOOOOOOOOOOOOOOOOOOOOOOOOOOOOOOOOOOOO",
"OOOOOOOOOOOOOOOOOOOOOOOOOOOOOOOOOOOOOOOOOOOOOOOOOOOOOOOOOOOOOOOO",
"OOOOOOOOOOOOOOOOOOOOOOOOOOOOOOOOOOOOOOOOOOOOOOOOOOOOOOOOOOOOOOOO",
"OOOOOOOOOOOOOOOOOOOOOOOOOOOOOOOOOOOOOOOOOOOOOOOOOOOOOOOOOOOOOOOO",
"OOOOOOOOOOOOOOOOOOOOOOOOOOOOOOOOOOOOOOOOOOOOOOOOOOOOOOOOOOOOOOOO",
"OOOOOOOOOOOOOOOOOOOOOOOOOOOOOOOOOOOOOOOOOOOOOOOOOOOOOOOOOOOOOOOO"
};
