/* XPM */
static char *result[] = {
/* columns rows colors chars-per-pixel */
"64 64 5 1 ",
"  c #0C0C0C",
". c #D4423E",
"X c #FBF236",
"o c white",
"O c None",
/* pixels */
"OOOOOOOOOOOOOOOOOOOOOOOOOOOOOOOOOOOOOOOOOOOOOOOOOOOOOOOOOOOOOOOO",
"OOOOOOOOOOOOOOOOOOOOOOOOOOOOOOOOOOOOOOOOOOOOOOOOOOOOOOOOOOOOOOOO",
"OOOOOOOOOOOOOOOOOOOOOOOOOOOOOOOOOOOOOOOOOOOOOOOOOOOOOOOOOOOOOOOO",
"OOOOOOOOOOOOOOOOOOOOOOOOOOOOOOOOOOOOOOOOOOOOOOOOOOOOOOOOOOOOOOOO",
"OOOOOOOOOOOOOOOOOOOOOOOOOOOOOOOOOOOOOOOOOOOOOOOOOOOOOOOOOOOOOOOO",
"OOOOOOOOOOOOOOOOOOOOOOOOOOOOOOOOOOOOOOOOOOOOOOOOOOOOOOOOOOOOOOOO",
"OOOOOOOOOOOOOOOOOOOOOOOOOOOOOOOOOOOOOOOOOOOOOOOOOOOOOOOOOOOOOOOO",
"OOOOOOOOOOOOOOOOOOOOOOOOOOOOOOOOOOOOOOOOOOOOOOOOOOOOOOOOOOOOOOOO",
"OOOOOOOOOOOOOOOOOOOOOOOOOOOOOOOOOOOOOOOOOOOOOOOOOOOOOOOOOOOOOOOO",
"OOOOOOOOOOOOOOOOOOOOOOOOOOOOOOOOOOOOOOOOOOOOOOOOOOOOOOOOOOOOOOOO",
"OOOOOOOOOOOOOOOOOOOOOOOOOOOOOOOOOOOOOOOOOOOOOOOOOOOOOOOOOOOOOOOO",
"OOOOOOOOOOOOOOOOOOOOOOOOOOOOOOOOOOOOOOOOOOOOOOOOOOOOOOOOOOOOOOOO",
"OOOOOOOOOOOOOOOOOOOOOOOOOOOOOOOOOOOOOOOOOOOOOOOOOOOOOOOOOOOOOOOO",
"OOOOOOOOOOOOOOOOOOOOOOOOOOOOOOOOOOOOOOOOOOOOOOOOOOOOOOOOOOOOOOOO",
"OOOOOOOOOOOOOOOOOOOOOOOOOOOOOOOOOOOOOOOOOOOOOOOOOOOOOOOOOOOOOOOO",
"OOOOOOOOOOOOOOOOOOOOOOOOOOOOOOOOOOOOOOOOOO  OOOOOOOOOOOOOOOOOOOO",
"OOOOOOOOOOOOOOOOOOOOOOOOOOOOOOOOOOOOOOOOOO  OOOOOOOOOOOOOOOOOOOO",
"OOOOOOOOOOOOOOOOOOOOOOOOOO  OOOOOOOOOOOO  XX  OOOOOOOOOOOOOOOOOO",
"OOOOOOOOOOOOOOOOOOOOOOOOOO  OOOOOOOOOOOO  XX  OOOOOOOOOOOOOOOOOO",
"OOOOOOOOOOOOOOOOOOOOOOOO  XX  OOOOOOOOOO  XXXX  OOOOOOOOOOOOOOOO",
"OOOOOOOOOOOOOOOOOOOOOOOO  XX  OOOOOOOOOO  XXXX  OOOOOOOOOOOOOOOO",
"OOOOOOOOOOOOOOOOOO      XXXXXX  OOOOOOOO  XXXXXX  OOOOOOOOOOOOOO",
"OOOOOOOOOOOOOOOOOO      XXXXXX  OOOOOOOO  XXXXXX  OOOOOOOOOOOOOO",
"OOOOOOOOOOOOOOOO  oo  XXXXXXXXXX  OOOO  XXXXXXXX  OOOOOOOOOOOOOO",
"OOOOOOOOOOOOOOOO  oo  XXXXXXXXXX  OOOO  XXXXXXXX  OOOOOOOOOOOOOO",
"OOOOOOOOOOOOOOOO  oo  XXXXXXXXXXXX  OO  XXXXXXXXXX  OOOOOOOOOOOO",
"OOOOOOOOOOOOOOOO  oo  XXXXXXXXXXXX  OO  XXXXXXXXXX  OOOOOOOOOOOO",
"OOOOOOOOOOOOOO  oooo  XXXX    XXXXXX  XXXXXXXXXXXX  OOOOOOOOOOOO",
"OOOOOOOOOOOOOO  oooo  XXXX    XXXXXX  XXXXXXXXXXXX  OOOOOOOOOOOO",
"OOOOOOOOOOOO    oooo  XXXXXXXXXXXXXXXXXXXXXXXXXXXX  OOOOOOOOOOOO",
"OOOOOOOOOOOO    oooo  XXXXXXXXXXXXXXXXXXXXXXXXXXXX  OOOOOOOOOOOO",
"OOOOOOOOOO  ..  oooo  XXXX    XXXXXXXXXXXXXXXXXXXX  OOOOOOOOOOOO",
"OOOOOOOOOO  ..  oooo  XXXX    XXXXXXXXXXXXXXXXXXXX  OOOOOOOOOOOO",
"OOOOOOOO  ......  oooo  XXXXXXXXXXXXXXXXXXXXXXXXXX  OOOOOOOOOOOO",
"OOOOOOOO  ......  oooo  XXXXXXXXXXXXXXXXXXXXXXXXXX  OOOOOOOOOOOO",
"OOOOOOOO  ......  oooooo  XXXXXXXXXXXXXXXXXXXXXX  OOOOOOOOOOOOOO",
"OOOOOOOO  ......  oooooo  XXXXXXXXXXXXXXXXXXXXXX  OOOOOOOOOOOOOO",
"OOOOOOOO  ........  oooo  XXXXXXXXXXXXXXXXXXXXXX  OOOOOOOOOOOOOO",
"OOOOOOOO  ........  oooo  XXXXXXXXXXXXXXXXXXXXXX  OOOOOOOOOOOOOO",
"OOOOOOOOOO  ......  oooooo  XXXXXXXXXXXXXXXXXX  OOOOOOOOOOOOOOOO",
"OOOOOOOOOO  ......  oooooo  XXXXXXXXXXXXXXXXXX  OOOOOOOOOOOOOOOO",
"OOOOOOOOOO  ........  oooooo  XXXXXXXXXXXXXX  OOOOOOOOOOOOOOOOOO",
"OOOOOOOOOO  ........  oooooo  XXXXXXXXXXXXXX  OOOOOOOOOOOOOOOOOO",
"OOOOOOOOOO  ..........  oooooo  XXXXXXXXXX  OOOOOOOOOOOOOOOOOOOO",
"OOOOOOOOOO  ..........  oooooo  XXXXXXXXXX  OOOOOOOOOOOOOOOOOOOO",
"OOOOOOOOOO  ............  oooooo          OOOOOOOOOOOOOOOOOOOOOO",
"OOOOOOOOOO  ............  oooooo          OOOOOOOOOOOOOOOOOOOOOO",
"OOOOOOOOOO  ......      OO      OOOOOOOOOOOOOOOOOOOOOOOOOOOOOOOO",
"OOOOOOOOOO  ......      OO      OOOOOOOOOOOOOOOOOOOOOOOOOOOOOOOO",
"OOOO      ....    OOOOOOOOOOOOOOOOOOOOOOOOOOOOOOOOOOOOOOOOOOOOOO",
"OOOO      ....    OOOOOOOOOOOOOOOOOOOOOOOOOOOOOOOOOOOOOOOOOOOOOO",
"OO  oooo  ..  OOOOOOOOOOOOOOOOOOOOOOOOOOOOOOOOOOOOOOOOOOOOOOOOOO",
"OO  oooo  ..  OOOOOOOOOOOOOOOOOOOOOOOOOOOOOOOOOOOOOOOOOOOOOOOOOO",
"  oooooooo  OOOOOOOOOOOOOOOOOOOOOOOOOOOOOOOOOOOOOOOOOOOOOOOOOOOO",
"  oooooooo  OOOOOOOOOOOOOOOOOOOOOOOOOOOOOOOOOOOOOOOOOOOOOOOOOOOO",
"  oooooooo  OOOOOOOOOOOOOOOOOOOOOOOOOOOOOOOOOOOOOOOOOOOOOOOOOOOO",
"  oooooooo  OOOOOOOOOOOOOOOOOOOOOOOOOOOOOOOOOOOOOOOOOOOOOOOOOOOO",
"  oooooooo  OOOOOOOOOOOOOOOOOOOOOOOOOOOOOOOOOOOOOOOOOOOOOOOOOOOO",
"  oooooooo  OOOOOOOOOOOOOOOOOOOOOOOOOOOOOOOOOOOOOOOOOOOOOOOOOOOO",
"OO  oooo  OOOOOOOOOOOOOOOOOOOOOOOOOOOOOOOOOOOOOOOOOOOOOOOOOOOOOO",
"OO  oooo  OOOOOOOOOOOOOOOOOOOOOOOOOOOOOOOOOOOOOOOOOOOOOOOOOOOOOO",
"OOOO    OOOOOOOOOOOOOOOOOOOOOOOOOOOOOOOOOOOOOOOOOOOOOOOOOOOOOOOO",
"OOOO    OOOOOOOOOOOOOOOOOOOOOOOOOOOOOOOOOOOOOOOOOOOOOOOOOOOOOOOO",
"OOOOOOOOOOOOOOOOOOOOOOOOOOOOOOOOOOOOOOOOOOOOOOOOOOOOOOOOOOOOOOOO"
};
