/* XPM */
static char *result[] = {
/* columns rows colors chars-per-pixel */
"64 64 5 1 ",
"  c #0C0C0C",
". c #D4423E",
"X c #FBF236",
"o c white",
"O c None",
/* pixels */
"OOOOOOOOOOOOOOOOOOOOOOOOOOOOOOOOOOOOOOOOOOOOOOOOOOOOOOOOOOOOOOOO",
"OOOOOOOOOOOOOOOOOOOOOOOOOOOOOOOOOOOOOOOOOOOOOOOOOOOOOOOOOOOOOOOO",
"OOOOOOOOOOOOOOOOOOOOOOOOOOOOOOOOOOOOOOOOOOOOOOOOOOOOOOOOOOOOOOOO",
"OOOOOOOOOOOOOOOOOOOOOOOOOOOOOOOOOOOOOOOOOOOOOOOOOOOOOOOOOO    OO",
"OOOOOOOOOOOOOOOOOOOOOOOOOOOOOOOOOOOOOOOOOOOOOOOOOOOOOOOOOO    OO",
"OOOOOOOOOOOOOOOOOOOOOOOOOOOOOOOOOOOOOOOOOOOOOOOOOOOOOOOO  oooo  ",
"OOOOOOOOOOOOOOOOOOOOOOOOOOOOOOOOOOOOOOOOOOOOOOOOOOOOOOOO  oooo  ",
"OOOOOOOOOOOOOOOOOOOOOOOOOOOOOOOOOOOOOOOOOOOOOOOOOOOOOO  oooooooo",
"OOOOOOOOOOOOOOOOOOOOOOOOOOOOOOOOOOOOOOOOOOOOOOOOOOOOOO  oooooooo",
"OOOOOOOOOOOOOOOOOOOOOOOOOOOOOOOOOOOOOOOOOOOOOOOOOOOOOO  oooooooo",
"OOOOOOOOOOOOOOOOOOOOOOOOOOOOOOOOOOOOOOOOOOOOOOOOOOOOOO  oooooooo",
"OOOOOOOOOOOOOOOOOOOOOOOOOOOOOOOOOOOOOOOOOOOOOOOOOOOO    oooooooo",
"OOOOOOOOOOOOOOOOOOOOOOOOOOOOOOOOOOOOOOOOOOOOOOOOOOOO    oooooooo",
"OOOOOOOOOOOOOOOOOOOOOOOOOOOOOOOOOOOOOOOOOOOOOOOO    ....  oooo  ",
"OOOOOOOOOOOOOOOOOOOOOOOOOOOOOOOOOOOOOOOOOOOOOOOO    ....  oooo  ",
"OOOOOOOOOOOOOOOOOOOOOOOOOOOOOOOO      OO        ..........    OO",
"OOOOOOOOOOOOOOOOOOOOOOOOOOOOOOOO      OO        ..........    OO",
"OOOOOOOOOOOOOOOOOOOOOO          oooooo  ................  OOOOOO",
"OOOOOOOOOOOOOOOOOOOOOO          oooooo  ................  OOOOOO",
"OOOOOOOOOOOOOOOOOOOO  XXXXXXXXXX  oooooo  ..............  OOOOOO",
"OOOOOOOOOOOOOOOOOOOO  XXXXXXXXXX  oooooo  ..............  OOOOOO",
"OOOOOOOOOOOOOOOOOO  XXXXXXXXXXXXXX  oooooo  ............  OOOOOO",
"OOOOOOOOOOOOOOOOOO  XXXXXXXXXXXXXX  oooooo  ............  OOOOOO",
"OOOOOOOOOOOOOOOO  XXXXXXXXXXXXXXXXXX  oooooo  ..........  OOOOOO",
"OOOOOOOOOOOOOOOO  XXXXXXXXXXXXXXXXXX  oooooo  ..........  OOOOOO",
"OOOOOOOOOOOOOO  XXXXXXXXXXXXXXXXXXXXXX  oooo  ........  OOOOOOOO",
"OOOOOOOOOOOOOO  XXXXXXXXXXXXXXXXXXXXXX  oooo  ........  OOOOOOOO",
"OOOOOOOOOOOOOO  XXXXXXXXXXXXXXXXXXXXXX  oooooo  ......  OOOOOOOO",
"OOOOOOOOOOOOOO  XXXXXXXXXXXXXXXXXXXXXX  oooooo  ......  OOOOOOOO",
"OOOOOOOOOOOO  XXXXXXXXXXXXXXXXXXXXXXXXXX  oooo  ......  OOOOOOOO",
"OOOOOOOOOOOO  XXXXXXXXXXXXXXXXXXXXXXXXXX  oooo  ......  OOOOOOOO",
"OOOOOOOOOOOO  XXXXXXXXXXXXXXXXXXXX    XXXX  oooo  ..  OOOOOOOOOO",
"OOOOOOOOOOOO  XXXXXXXXXXXXXXXXXXXX    XXXX  oooo  ..  OOOOOOOOOO",
"OOOOOOOOOOOO  XXXXXXXXXXXXXXXXXXXXXXXXXXXX  oooo    OOOOOOOOOOOO",
"OOOOOOOOOOOO  XXXXXXXXXXXXXXXXXXXXXXXXXXXX  oooo    OOOOOOOOOOOO",
"OOOOOOOOOOOO  XXXXXXXXXXXXXXXXXXXX    XXXX  oooo  OOOOOOOOOOOOOO",
"OOOOOOOOOOOO  XXXXXXXXXXXXXXXXXXXX    XXXX  oooo  OOOOOOOOOOOOOO",
"OOOOOOOOOOOO  XXXXXXXXXXXXXXXXXXXXXXXXXXXX  oo  OOOOOOOOOOOOOOOO",
"OOOOOOOOOOOO  XXXXXXXXXXXXXXXXXXXXXXXXXXXX  oo  OOOOOOOOOOOOOOOO",
"OOOOOOOOOOOOOO  XXXXXXXXXXXXXXXXXXXXXXXXXX  oo  OOOOOOOOOOOOOOOO",
"OOOOOOOOOOOOOO  XXXXXXXXXXXXXXXXXXXXXXXXXX  oo  OOOOOOOOOOOOOOOO",
"OOOOOOOOOOOOOO  XXXXXXXXXXXXXXXXXXXXXXXX      OOOOOOOOOOOOOOOOOO",
"OOOOOOOOOOOOOO  XXXXXXXXXXXXXXXXXXXXXXXX      OOOOOOOOOOOOOOOOOO",
"OOOOOOOOOOOOOOOO  XXXXXXXX  XXXXXXXXXX  OOOOOOOOOOOOOOOOOOOOOOOO",
"OOOOOOOOOOOOOOOO  XXXXXXXX  XXXXXXXXXX  OOOOOOOOOOOOOOOOOOOOOOOO",
"OOOOOOOOOOOOOOOOOO  XXXX  OO  XXXXXX  OOOOOOOOOOOOOOOOOOOOOOOOOO",
"OOOOOOOOOOOOOOOOOO  XXXX  OO  XXXXXX  OOOOOOOOOOOOOOOOOOOOOOOOOO",
"OOOOOOOOOOOOOOOOOOOO  XX  OOOO  XX  OOOOOOOOOOOOOOOOOOOOOOOOOOOO",
"OOOOOOOOOOOOOOOOOOOO  XX  OOOO  XX  OOOOOOOOOOOOOOOOOOOOOOOOOOOO",
"OOOOOOOOOOOOOOOOOOOOOO  OOOOOOOO  OOOOOOOOOOOOOOOOOOOOOOOOOOOOOO",
"OOOOOOOOOOOOOOOOOOOOOO  OOOOOOOO  OOOOOOOOOOOOOOOOOOOOOOOOOOOOOO",
"OOOOOOOOOOOOOOOOOOOOOOOOOOOOOOOOOOOOOOOOOOOOOOOOOOOOOOOOOOOOOOOO",
"OOOOOOOOOOOOOOOOOOOOOOOOOOOOOOOOOOOOOOOOOOOOOOOOOOOOOOOOOOOOOOOO",
"OOOOOOOOOOOOOOOOOOOOOOOOOOOOOOOOOOOOOOOOOOOOOOOOOOOOOOOOOOOOOOOO",
"OOOOOOOOOOOOOOOOOOOOOOOOOOOOOOOOOOOOOOOOOOOOOOOOOOOOOOOOOOOOOOOO",
"OOOOOOOOOOOOOOOOOOOOOOOOOOOOOOOOOOOOOOOOOOOOOOOOOOOOOOOOOOOOOOOO",
"OOOOOOOOOOOOOOOOOOOOOOOOOOOOOOOOOOOOOOOOOOOOOOOOOOOOOOOOOOOOOOOO",
"OOOOOOOOOOOOOOOOOOOOOOOOOOOOOOOOOOOOOOOOOOOOOOOOOOOOOOOOOOOOOOOO",
"OOOOOOOOOOOOOOOOOOOOOOOOOOOOOOOOOOOOOOOOOOOOOOOOOOOOOOOOOOOOOOOO",
"OOOOOOOOOOOOOOOOOOOOOOOOOOOOOOOOOOOOOOOOOOOOOOOOOOOOOOOOOOOOOOOO",
"OOOOOOOOOOOOOOOOOOOOOOOOOOOOOOOOOOOOOOOOOOOOOOOOOOOOOOOOOOOOOOOO",
"OOOOOOOOOOOOOOOOOOOOOOOOOOOOOOOOOOOOOOOOOOOOOOOOOOOOOOOOOOOOOOOO",
"OOOOOOOOOOOOOOOOOOOOOOOOOOOOOOOOOOOOOOOOOOOOOOOOOOOOOOOOOOOOOOOO",
"OOOOOOOOOOOOOOOOOOOOOOOOOOOOOOOOOOOOOOOOOOOOOOOOOOOOOOOOOOOOOOOO"
};
