/* XPM */
static char *result[] = {
/* columns rows colors chars-per-pixel */
"64 64 5 1 ",
"  c #0C0C0C",
". c #D4423E",
"X c #FBF236",
"o c white",
"O c None",
/* pixels */
"OOOOOOOOOOOOOOOOOOOOOOOOOOOOOOOOOOOOOOOOOOOOOOOOOOOOOOOOOOOOOOOO",
"OOOOOOOOOOOOOOOOOOOOOOOOOOOOOOOOOOOOOOOOOOOOOOOOOOOOOOOO    OOOO",
"OOOOOOOOOOOOOOOOOOOOOOOOOOOOOOOOOOOOOOOOOOOOOOOOOOOOOOOO    OOOO",
"OOOOOOOOOOOOOOOOOOOOOOOOOOOOOOOOOOOOOOOOOOOOOOOOOOOOOO  oooo  OO",
"OOOOOOOOOOOOOOOOOOOOOOOOOOOOOOOOOOOOOOOOOOOOOOOOOOOOOO  oooo  OO",
"OOOOOOOOOOOOOOOOOOOOOOOOOOOOOOOOOOOOOOOOOOOOOOOOOOOO  oooooooo  ",
"OOOOOOOOOOOOOOOOOOOOOOOOOOOOOOOOOOOOOOOOOOOOOOOOOOOO  oooooooo  ",
"OOOOOOOOOOOOOOOOOOOOOOOOOOOOOOOOOOOOOOOOOOOOOOOOOOOO  oooooooo  ",
"OOOOOOOOOOOOOOOOOOOOOOOOOOOOOOOOOOOOOOOOOOOOOOOOOOOO  oooooooo  ",
"OOOOOOOOOOOOOOOOOOOOOOOOOOOOOOOOOOOOOOOOOOOOOOOOOOOO  oooooooo  ",
"OOOOOOOOOOOOOOOOOOOOOOOOOOOOOOOOOOOOOOOOOOOOOOOOOOOO  oooooooo  ",
"OOOOOOOOOOOOOOOOOOOOOOOOOOOOOOOOOOOOOOOOOOOOOOOOOO  ..  oooo  OO",
"OOOOOOOOOOOOOOOOOOOOOOOOOOOOOOOOOOOOOOOOOOOOOOOOOO  ..  oooo  OO",
"OOOOOOOOOOOOOOOOOOOOOOOOOOOOOOOOOOOOOOOOOOOOOO    ....      OOOO",
"OOOOOOOOOOOOOOOOOOOOOOOOOOOOOOOOOOOOOOOOOOOOOO    ....      OOOO",
"OOOOOOOOOOOOOOOOOOOOOOOOOOOOOOOO      OO      ......  OOOOOOOOOO",
"OOOOOOOOOOOOOOOOOOOOOOOOOOOOOOOO      OO      ......  OOOOOOOOOO",
"OOOOOOOOOOOOOOOOOOOOOO          oooooo  ............  OOOOOOOOOO",
"OOOOOOOOOOOOOOOOOOOOOO          oooooo  ............  OOOOOOOOOO",
"OOOOOOOOOOOOOOOOOOOO  XXXXXXXXXX  oooooo  ..........  OOOOOOOOOO",
"OOOOOOOOOOOOOOOOOOOO  XXXXXXXXXX  oooooo  ..........  OOOOOOOOOO",
"OOOOOOOOOOOOOOOOOO  XXXXXXXXXXXXXX  oooooo  ........  OOOOOOOOOO",
"OOOOOOOOOOOOOOOOOO  XXXXXXXXXXXXXX  oooooo  ........  OOOOOOOOOO",
"OOOOOOOOOOOOOOOO  XXXXXXXXXXXXXXXXXX  oooooo  ......  OOOOOOOOOO",
"OOOOOOOOOOOOOOOO  XXXXXXXXXXXXXXXXXX  oooooo  ......  OOOOOOOOOO",
"OOOOOOOOOOOOOO  XXXXXXXXXXXXXXXXXXXXXX  oooo  ........  OOOOOOOO",
"OOOOOOOOOOOOOO  XXXXXXXXXXXXXXXXXXXXXX  oooo  ........  OOOOOOOO",
"OOOOOOOOOOOOOO  XXXXXXXXXXXXXXXXXXXXXX  oooooo  ......  OOOOOOOO",
"OOOOOOOOOOOOOO  XXXXXXXXXXXXXXXXXXXXXX  oooooo  ......  OOOOOOOO",
"OOOOOOOOOOOO  XXXXXXXXXXXXXXXXXXXXXXXXXX  oooo  ......  OOOOOOOO",
"OOOOOOOOOOOO  XXXXXXXXXXXXXXXXXXXXXXXXXX  oooo  ......  OOOOOOOO",
"OOOOOOOOOOOO  XXXXXXXXXXXXXXXXXXXX    XXXX  oooo  ..  OOOOOOOOOO",
"OOOOOOOOOOOO  XXXXXXXXXXXXXXXXXXXX    XXXX  oooo  ..  OOOOOOOOOO",
"OOOOOOOOOOOO  XXXXXXXXXXXXXXXXXXXXXXXXXXXX  oooo    OOOOOOOOOOOO",
"OOOOOOOOOOOO  XXXXXXXXXXXXXXXXXXXXXXXXXXXX  oooo    OOOOOOOOOOOO",
"OOOOOOOOOOOO  XXXXXXXXXXXX  XXXXXX    XXXX  oooo  OOOOOOOOOOOOOO",
"OOOOOOOOOOOO  XXXXXXXXXXXX  XXXXXX    XXXX  oooo  OOOOOOOOOOOOOO",
"OOOOOOOOOOOO  XXXXXXXXXX  OO  XXXXXXXXXXXX  oo  OOOOOOOOOOOOOOOO",
"OOOOOOOOOOOO  XXXXXXXXXX  OO  XXXXXXXXXXXX  oo  OOOOOOOOOOOOOOOO",
"OOOOOOOOOOOOOO  XXXXXXXX  OOOO  XXXXXXXXXX  oo  OOOOOOOOOOOOOOOO",
"OOOOOOOOOOOOOO  XXXXXXXX  OOOO  XXXXXXXXXX  oo  OOOOOOOOOOOOOOOO",
"OOOOOOOOOOOOOO  XXXXXX  OOOOOOOO  XXXXXX      OOOOOOOOOOOOOOOOOO",
"OOOOOOOOOOOOOO  XXXXXX  OOOOOOOO  XXXXXX      OOOOOOOOOOOOOOOOOO",
"OOOOOOOOOOOOOOOO  XXXX  OOOOOOOOOO  XX  OOOOOOOOOOOOOOOOOOOOOOOO",
"OOOOOOOOOOOOOOOO  XXXX  OOOOOOOOOO  XX  OOOOOOOOOOOOOOOOOOOOOOOO",
"OOOOOOOOOOOOOOOOOO  XX  OOOOOOOOOOOO  OOOOOOOOOOOOOOOOOOOOOOOOOO",
"OOOOOOOOOOOOOOOOOO  XX  OOOOOOOOOOOO  OOOOOOOOOOOOOOOOOOOOOOOOOO",
"OOOOOOOOOOOOOOOOOOOO  OOOOOOOOOOOOOOOOOOOOOOOOOOOOOOOOOOOOOOOOOO",
"OOOOOOOOOOOOOOOOOOOO  OOOOOOOOOOOOOOOOOOOOOOOOOOOOOOOOOOOOOOOOOO",
"OOOOOOOOOOOOOOOOOOOOOOOOOOOOOOOOOOOOOOOOOOOOOOOOOOOOOOOOOOOOOOOO",
"OOOOOOOOOOOOOOOOOOOOOOOOOOOOOOOOOOOOOOOOOOOOOOOOOOOOOOOOOOOOOOOO",
"OOOOOOOOOOOOOOOOOOOOOOOOOOOOOOOOOOOOOOOOOOOOOOOOOOOOOOOOOOOOOOOO",
"OOOOOOOOOOOOOOOOOOOOOOOOOOOOOOOOOOOOOOOOOOOOOOOOOOOOOOOOOOOOOOOO",
"OOOOOOOOOOOOOOOOOOOOOOOOOOOOOOOOOOOOOOOOOOOOOOOOOOOOOOOOOOOOOOOO",
"OOOOOOOOOOOOOOOOOOOOOOOOOOOOOOOOOOOOOOOOOOOOOOOOOOOOOOOOOOOOOOOO",
"OOOOOOOOOOOOOOOOOOOOOOOOOOOOOOOOOOOOOOOOOOOOOOOOOOOOOOOOOOOOOOOO",
"OOOOOOOOOOOOOOOOOOOOOOOOOOOOOOOOOOOOOOOOOOOOOOOOOOOOOOOOOOOOOOOO",
"OOOOOOOOOOOOOOOOOOOOOOOOOOOOOOOOOOOOOOOOOOOOOOOOOOOOOOOOOOOOOOOO",
"OOOOOOOOOOOOOOOOOOOOOOOOOOOOOOOOOOOOOOOOOOOOOOOOOOOOOOOOOOOOOOOO",
"OOOOOOOOOOOOOOOOOOOOOOOOOOOOOOOOOOOOOOOOOOOOOOOOOOOOOOOOOOOOOOOO",
"OOOOOOOOOOOOOOOOOOOOOOOOOOOOOOOOOOOOOOOOOOOOOOOOOOOOOOOOOOOOOOOO",
"OOOOOOOOOOOOOOOOOOOOOOOOOOOOOOOOOOOOOOOOOOOOOOOOOOOOOOOOOOOOOOOO",
"OOOOOOOOOOOOOOOOOOOOOOOOOOOOOOOOOOOOOOOOOOOOOOOOOOOOOOOOOOOOOOOO",
"OOOOOOOOOOOOOOOOOOOOOOOOOOOOOOOOOOOOOOOOOOOOOOOOOOOOOOOOOOOOOOOO"
};
