/* XPM */
static char *result[] = {
/* columns rows colors chars-per-pixel */
"64 64 11 1 ",
"  c black",
". c #18391E",
"X c #3F2107",
"o c #0D3C21",
"O c #D4423E",
"+ c #008800",
"@ c peru",
"# c goldenrod",
"$ c #79BFD1",
"% c #FDF1B8",
"& c white",
/* pixels */
"ooooOOOOooOOOOooooooOOOOooOOOOooooooOOOOooOOOOooooooOOOOooOOOOoo",
"ooooOOOOooOOOOooooooOOOOooOOOOooooooOOOOooOOOOooooooOOOOooOOOOoo",
"ooOOOOoo&&ooOOOOooOOOOoo&&ooOOOOooOOOOoo&&ooOOOOooOOOOoo&&ooOOOO",
"ooOOOOoo&&ooOOOOooOOOOoo&&ooOOOOooOOOOoo&&ooOOOOooOOOOoo&&ooOOOO",
"OOOOoo&&oo&&ooOOOOOOoo&&oo&&ooOOOOOOoo&&oo&&ooOOOOOOoo&&oo&&ooOO",
"OOOOoo&&oo&&ooOOOOOOoo&&oo&&ooOOOOOOoo&&oo&&ooOOOOOOoo&&oo&&ooOO",
"oooooooooooooooooooooooooooooooooooooooooooooooooooooooooooooooo",
"oooooooooooooooooooooooooooooooooooooooooooooooooooooooooooooooo",
"ooooooooooooooooooooo$oo$oooooooooooooooooooo$oo$oooooooooo$oo$o",
"oo$oo$oooooooooooooooo$$oooooooooooooooooooooo$$oooooooooooo$$oo",
"ooo$$ooooooooooooooooo$$oooooooooooooooooooooo$$oooooooooooo$$oo",
"ooo$$oooooooooooooooo$oo$oooooooooooooooooooo$oo$oooooooooo$oo$o",
"oo$oo$oooooooooooooooooooooooooooooooooooooooooooooooooooooooooo",
"oooooooooooooooooooooooooooooooooooooo$oo$oooooooooooooooooooooo",
"ooooooooooooooooooooooooooooooooooooooo$$ooooooooooooooooooooooo",
"ooooooooooooooooooooooooooooooooooooooo$$ooooooooooooooooooooooo",
"oooooooooooooooooooooooooooooooooooooo$oo$oooo%%%oo%%%oooooooooo",
"oooooooooo%%%oo%%%ooooooooooooo++ooooooooooooo%%%oo%%%oooooooooo",
"o$oo$ooooo%%%oo%%%ooooooooooooo+.ooooooooooooo%%%oo%%%oooooooooo",
"oo$$oooooo%%%oo%%%ooooooooooooo.Oooooooooooooo%%%oo%%%oooooooooo",
"oo$$oooooo%%%%%%%%%%%oooooooooo+Ooooooooooo%%%%%%%%%%%oooooooooo",
"o$oo$ooooo%%%%%%%%%%%ooooooooo++++ooooooooo%%%%%%%%%%%oooooooooo",
"oooooooooo%%%%%%%%%%%oooooooo++++++oooooooo%%%%%%%%%%%oooooooooo",
"ooooooo%%%%%%ooooooooooooo+..++++..+++ooooooooooooo%%%%%%ooooooo",
"ooooooo%%%%%%ooooooooooooo+++.++.#++++ooooooooooooo%%%%%%ooooooo",
"ooooooo%%%%%%ooooooooooooooo+O..+#++ooooooooooooooo%%%%%%ooooooo",
"oooo%%%%%%ooooo@@@@@@ooooooooO+++++oooooooo@@@@@@ooooo%%%%%%oooo",
"oooo%%%%%%ooooo@@@@@@oooooooo++++++oooooooo@@@@@@ooooo%%%%%%oooo",
"oooo%%%%%%ooooo@@@@@@oooooooo++++++oooooooo@@@@@@ooooo%%%%%%oooo",
"@@@@@@@@@@@@@@@%%%%%%oo+++.++++++++.O++++oo%%%%%%@@@@@@@@@@@@@@@",
"@@@@@@@@@@@@@@@%%%%%%ooo+++..++++..+O+++ooo%%%%%%@@@@@@@@@@@@@@@",
"@@@@@@@@@@@@@@@%%%%%%oooo++#+.++.##++++oooo%%%%%%@@@@@@@@@@@@@@@",
"@@@@@@@@@@%%%%%ooooooooooo##++..++#+++ooooooooooo%%%%%@@@@@@@@@@",
"@@@@@@@@@@%%%%%ooooooooooo++++O+++++++ooooooooooo%%%%%@@@@@@@@@@",
"@@@@@@@@@@%%%%%ooooooooooo++++OO++++++ooooooooooo%%%%%@@@@@@@@@@",
"@@@@   @@@oooooooooo+++..++++++++++++++.#++++ooooooooo@@@   @@@@",
"@@@@   @@@oooooooooo+++++.+++++++++++++.##+++ooooooooo@@@   @@@@",
"@@@@   @@@oooooooooooo+++.++++++++++++.++++ooooooooooo@@@   @@@@",
"@@@@   @@@ooooooooooooo++O.++++++++...++++oooooooooooo@@@   @@@@",
"@@@@@@@@@@ooooooooooooo+OO+.++++++.+OO++++oooooooooooo@@@@@@@@@@",
"@@@@@@@@@@ooooooooooooo+++++......++O+++++oooo$oo$oooo@@@@@@@@@@",
"OO@@@@@@@@oooooooooooooooo++##++OO++++ooooooooo$$ooooo@@@@@@@@OO",
"OO@@@@@@@@oooooooooooooooo+++#++++++++ooooooooo$$ooooo@@@@@@@@OO",
"OO@@@@@@@@oooooooooooooooo++++++++++++oooooooo$oo$oooo@@@@@@@@OO",
"@@@@@@@ooooooooooooooooooooooXXXXXXoooooooooooooooooooooo@@@@@@@",
"@@@@@@@ooooooooooooooooooooooXXXXXXoooooooooooooooooooooo@@@@@@@",
"@@@@@@@ooooooooooooooooooooooXXXXXXoooooooooooooooooooooo@@@@@@@",
"ooooooooooooooooooo$oo$ooooooooooooooooooooooooooooooooooooooooo",
"oooooooooooooooooooo$$oooooooooooooooooooooooooooooooooooooooooo",
"oooooooooooooooooooo$$oooooooooooooooooooooooooooooooooooooooooo",
"oooooo$oo$ooooooooo$oo$ooooooooooooooooooooooooooooooooooooooooo",
"ooooooo$$ooooooooooooooooooooooooo$oo$ooooooooooooooooo$oo$ooooo",
"ooooooo$$oooooooooooooooooooooooooo$$ooooooooooooooooooo$$oooooo",
"oooooo$oo$ooooooooooooooooooooooooo$$ooooooooooooooooooo$$oooooo",
"oooooooooooooooooooooooooooooooooo$oo$ooooooooooooooooo$oo$ooooo",
"oooooooooooooooooooooooooooooooooooooooooooooooooooooooooooooooo",
"oooooooooooooooooooooooooooooooooooooooooooooooooooooooooooooooo",
"oooooooooooooooooooooooooooooooooooooooooooooooooooooooooooooooo",
"OOoo&&oo&&ooOOOOOOoo&&oo&&ooOOOOOOoo&&oo&&ooOOOOOOoo&&oo&&ooOOOO",
"OOoo&&oo&&ooOOOOOOoo&&oo&&ooOOOOOOoo&&oo&&ooOOOOOOoo&&oo&&ooOOOO",
"OOOOoo&&ooOOOOooOOOOoo&&ooOOOOooOOOOoo&&ooOOOOooOOOOoo&&ooOOOOoo",
"OOOOoo&&ooOOOOooOOOOoo&&ooOOOOooOOOOoo&&ooOOOOooOOOOoo&&ooOOOOoo",
"ooOOOOooOOOOooooooOOOOooOOOOooooooOOOOooOOOOooooooOOOOooOOOOoooo",
"ooOOOOooOOOOooooooOOOOooOOOOooooooOOOOooOOOOooooooOOOOooOOOOoooo"
};
