/* XPM */
static char *result[] = {
/* columns rows colors chars-per-pixel */
"64 64 6 1 ",
"  c black",
". c #D4423E",
"X c #FDEE00",
"o c navy",
"O c white",
"+ c None",
/* pixels */
"++++++++++++++++++++++++++++++++++++++++++++++++++++++++++++++++",
"++++++++++++++++++++++++++++++++++++++++++++++++++++++++++++++++",
"++++++++++++++++++++++++++++++++++++++++++++++++++++++++++++++++",
"++++++++++++++++++++++++++++++++++++++++++++++++++++++++++++++++",
"++++++++++++++++++++++++++++++++++++++++++++++++++++++++++++++++",
"++++++++++++++++++++++++++++++++++++++++++++++++++++++++++++++++",
"++++++++++++++++++++++++++++++++++++++++++++++++++++++++++++++++",
"++++++++++++++++++++++++++++++++++++++++++++++++++++++++++++++++",
"++++++++++++++          ++++++++++++++++++++++++++++++++++++++++",
"++++++++++++++          ++++++++++++++++++++++++++++++++++++++++",
"++++++++      ..........    ++++++++++++++++++++++++++++++++++++",
"++++++++      ..........    ++++++++++++++++++++++++++++++++++++",
"++++++    ................  ++++++++++++++++++++++++++++++++++++",
"++++++    ................  ++++++++++++++++++++++++++++++++++++",
"++++  OOOO  ................  ++++++++++++++++++++++++++++++++++",
"++++  OOOO  ................  ++++++++++++++++++++++++++++++++++",
"++++  OOOOOO  ..............    ++++++++++++++++++++++++++++++++",
"++++  OOOOOO  ..............    ++++++++++++++++++++++++++++++++",
"++++  OOOOOO  ..........    OOOO  ++++++++++++++++++++++++++++++",
"++++  OOOOOO  ..........    OOOO  ++++++++++++++++++++++++++++++",
"++++  OOOOOO  ..........    OOOO  ++++++++++++++++++++++++++++++",
"++++++      ++  ......  OOOOOOOO    ++++++++++++++++++++++++++++",
"++++++      ++  ......  OOOOOOOO    ++++++++++++++++++++++++++++",
"++++++++++++++  ....  OOOOOO    XXXX    ++++++++++++++++++++++++",
"++++++++++++++  ....  OOOOOO    XXXX    ++++++++++++++++++++++++",
"++++++++++++++++    OOOO    XXXXXXXXXXXX  ++++++++++++++++++++++",
"++++++++++++++++    OOOO    XXXXXXXXXXXX  ++++++++++++++++++++++",
"++++++++++++++++  OOOO  XXXXXXXXXXXXXXXXXX  ++++++++++++++++++++",
"++++++++++++++++  OOOO  XXXXXXXXXXXXXXXXXX  ++++++++++++++++++++",
"++++++++++++++++  OO  XXXXOOOOXXXXXXXXOOOOXX  ++++++++++++++++++",
"++++++++++++++++  OO  XXXXOOOOXXXXXXXXOOOOXX  ++++++++++++++++++",
"++++++++++++++++++  XXXXOOOOOOOOXXXXOOOOOOOO  ++++++++++++++++++",
"++++++++++++++++++  XXXXOOOOOOOOXXXXOOOOOOOO  ++++++++++++++++++",
"++++++++++++++++++  XXXXooooOOOOXXXXooooOOOO  ++++++++++++++++++",
"++++++++++++++++++  XXXXooooOOOOXXXXooooOOOO  ++++++++++++++++++",
"++++++++++++++++  XXXXXXooooOOOOXXXXooooOOOOXX  ++++++++++++++++",
"++++++++++++++++  XXXXXXooooOOOOXXXXooooOOOOXX  ++++++++++++++++",
"++++++++++++++++  XXXXXXXXOOOOXXXXXXXXOOOOXXXX  ++++++++++++++++",
"++++++++++++++++  XXXXXXXXOOOOXXXXXXXXOOOOXXXX  ++++++++++++++++",
"++++++++++++++++  XXXXXXXXXXXXXXXXXXXXXXXXXXXX  ++++++++++++++++",
"++++++++++++++++  XXXXXXXXXXXXXXXXXXXXXXXXXXXX  ++++++++++++++++",
"++++++++++++++++  XXXXXXXXXXXXXXXXXXXXXXXXXXXX  ++++++++++++++++",
"++++++++++++++++  XXXXXXXXXXXXXXXXXXXXXXXXXXXX  ++++++++++++++++",
"++++++++++++++++  XXXXXXXXXXXXXXXXXXXXXXXXXXXX  ++++++++++++++++",
"++++++++++++++++  XXXXXXXXXXXXXXXXXXXXXXXXXXXX  ++++++++++++++++",
"++++++++++++++++  XXXXXXXXXXXXXXXXXXXXXXXXXXXX  ++++++++++++++++",
"++++++++++++++++  XXXX  XXXXXX    XXXXXX  XXXX  ++++++++++++++++",
"++++++++++++++++  XXXX  XXXXXX    XXXXXX  XXXX  ++++++++++++++++",
"++++++++++++++++  XX  ++  XXXX    XXXX  ++  XX  ++++++++++++++++",
"++++++++++++++++  XX  ++  XXXX    XXXX  ++  XX  ++++++++++++++++",
"++++++++++++++++++  ++++++    ++++    ++++++  ++++++++++++++++++",
"++++++++++++++++++  ++++++    ++++    ++++++  ++++++++++++++++++",
"++++++++++++++++++++++++++++++++++++++++++++++++++++++++++++++++",
"++++++++++++++++++++++++++++++++++++++++++++++++++++++++++++++++",
"++++++++++++++++++++++++++++++++++++++++++++++++++++++++++++++++",
"++++++++++++++++++++++++++++++++++++++++++++++++++++++++++++++++",
"++++++++++++++++++++++++++++++++++++++++++++++++++++++++++++++++",
"++++++++++++++++++++++++++++++++++++++++++++++++++++++++++++++++",
"++++++++++++++++++++++++++++++++++++++++++++++++++++++++++++++++",
"++++++++++++++++++++++++++++++++++++++++++++++++++++++++++++++++",
"++++++++++++++++++++++++++++++++++++++++++++++++++++++++++++++++",
"++++++++++++++++++++++++++++++++++++++++++++++++++++++++++++++++",
"++++++++++++++++++++++++++++++++++++++++++++++++++++++++++++++++",
"++++++++++++++++++++++++++++++++++++++++++++++++++++++++++++++++"
};
