/* XPM */
static char *result[] = {
/* columns rows colors chars-per-pixel */
"64 64 6 1 ",
"  c black",
". c #FF7F00",
"X c #D4423E",
"o c navy",
"O c white",
"+ c None",
/* pixels */
"++++++++++++++++++++++++++++++++++++++++++++++++++++++++++++++++",
"++++++++++++++++++++++++++++++++++++++++++++++++++++++++++++++++",
"++++++++++++++++++++++++++++++++++++++++++++++++++++++++++++++++",
"++++++++++++++++++++++++++++++++++++++++++++++++++++++++++++++++",
"++++++++++++++++++++++++++++++++++++++++++++++++++++++++++++++++",
"++++++++++++++++++++++++++++++++++++++++++++++++++++++++++++++++",
"++++++++++++++++++++++++++++++++++++++++++++++++++++++++++++++++",
"++++++++++++++++++++++++++++++++++++++++++++++++++++++++++++++++",
"++++++++++++++++++++++++++++++++++++++++++++++++++++++++++++++++",
"++++++++++++++++++++++++++++++++++++++++++++++++++++++++++++++++",
"++++++++++++++++++++++++++++++++++++++++++++++++++++++++++++++++",
"++++++++++++++++++++++++++++++++++++++++++++++++++++++++++++++++",
"++++++++++++++++++      ++++++++++++++++++++++++++++++++++++++++",
"++++++++++++++++++      ++++++++++++++++++++++++++++++++++++++++",
"++++++++++++++    XXXXXX    ++++++++++++++++++++++++++++++++++++",
"++++++++++++++    XXXXXX    ++++++++++++++++++++++++++++++++++++",
"++++++++++++  XXXXXXXXXXXXXX  ++++++++++++++++++++++++++++++++++",
"++++++++++++  XXXXXXXXXXXXXX  ++++++++++++++++++++++++++++++++++",
"++++++++++  XXXXXXXXXXXXXXXX    ++++++++++++++++++++++++++++++++",
"++++++++++  XXXXXXXXXXXXXXXX    ++++++++++++++++++++++++++++++++",
"++++++++++  XXXXXXXXXXXX    OOOO  ++++++++++++++++++++++++++++++",
"++++++++++  XXXXXXXXXXXX    OOOO  ++++++++++++++++++++++++++++++",
"++++++++  XXXXXXXXXXXX  OOOOOOOO    ++++++++++++++++++++++++++++",
"++++++++  XXXXXXXXXXXX  OOOOOOOO    ++++++++++++++++++++++++++++",
"++++++    XXXXXXXXXX  OOOOOO    ....    ++++++++++++++++++++++++",
"++++++    XXXXXXXXXX  OOOOOO    ....    ++++++++++++++++++++++++",
"++++  OOOO  XXXX    OOOO    ............  ++++++++++++++++++++++",
"++++  OOOO  XXXX    OOOO    ............  ++++++++++++++++++++++",
"++++  OOOOOO      OOOO  ..................  ++++++++++++++++++++",
"++++  OOOOOO      OOOO  ..................  ++++++++++++++++++++",
"++++  OOOOOO  ++  OO  ....OOOO........OOOO..  ++++++++++++++++++",
"++++  OOOOOO  ++  OO  ....OOOO........OOOO..  ++++++++++++++++++",
"++++++      ++++++  ....OOOOOOOO....OOOOOOOO  ++++++++++++++++++",
"++++++      ++++++  ....OOOOOOOO....OOOOOOOO  ++++++++++++++++++",
"++++++++++++++++++  ....OOOOoooo....OOOOoooo  ++++++++++++++++++",
"++++++++++++++++++  ....OOOOoooo....OOOOoooo  ++++++++++++++++++",
"++++++++++++++++  ......OOOOoooo....OOOOoooo..  ++++++++++++++++",
"++++++++++++++++  ......OOOOoooo....OOOOoooo..  ++++++++++++++++",
"++++++++++++++++  ........OOOO........OOOO....  ++++++++++++++++",
"++++++++++++++++  ........OOOO........OOOO....  ++++++++++++++++",
"++++++++++++++++  ............................  ++++++++++++++++",
"++++++++++++++++  ............................  ++++++++++++++++",
"++++++++++++++++  ............................  ++++++++++++++++",
"++++++++++++++++  ............................  ++++++++++++++++",
"++++++++++++++++  ............................  ++++++++++++++++",
"++++++++++++++++  ............................  ++++++++++++++++",
"++++++++++++++++  ....  ......    ......  ....  ++++++++++++++++",
"++++++++++++++++  ....  ......    ......  ....  ++++++++++++++++",
"++++++++++++++++  ..  ++  ....    ....  ++  ..  ++++++++++++++++",
"++++++++++++++++  ..  ++  ....    ....  ++  ..  ++++++++++++++++",
"++++++++++++++++++  ++++++    ++++    ++++++  ++++++++++++++++++",
"++++++++++++++++++  ++++++    ++++    ++++++  ++++++++++++++++++",
"++++++++++++++++++++++++++++++++++++++++++++++++++++++++++++++++",
"++++++++++++++++++++++++++++++++++++++++++++++++++++++++++++++++",
"++++++++++++++++++++++++++++++++++++++++++++++++++++++++++++++++",
"++++++++++++++++++++++++++++++++++++++++++++++++++++++++++++++++",
"++++++++++++++++++++++++++++++++++++++++++++++++++++++++++++++++",
"++++++++++++++++++++++++++++++++++++++++++++++++++++++++++++++++",
"++++++++++++++++++++++++++++++++++++++++++++++++++++++++++++++++",
"++++++++++++++++++++++++++++++++++++++++++++++++++++++++++++++++",
"++++++++++++++++++++++++++++++++++++++++++++++++++++++++++++++++",
"++++++++++++++++++++++++++++++++++++++++++++++++++++++++++++++++",
"++++++++++++++++++++++++++++++++++++++++++++++++++++++++++++++++",
"++++++++++++++++++++++++++++++++++++++++++++++++++++++++++++++++"
};
