/* XPM */
static char *result[] = {
/* columns rows colors chars-per-pixel */
"64 64 6 1 ",
"  c black",
". c #D4423E",
"X c navy",
"o c #4BE7D7",
"O c white",
"+ c None",
/* pixels */
"++++++++++++++++++++++++++++++++++++++++++++++++++++++++++++++++",
"++++++++++++++++++++++++++++++++++++++++++++++++++++++++++++++++",
"++++++++++++++++++++++++++++++++++++++++++++++++++++++++++++++++",
"++++++++++++++++++++++++++++++++++++++++++++++++++++++++++++++++",
"++++++++++++++++++++++++++++++++++++++++++++++++++++++++++++++++",
"++++++++++++++++++++++++++++++++++++++++++++++++++++++++++++++++",
"++++++++++++++++++++++++++++++++++++++++++++++++++++++++++++++++",
"++++++++++++++++++++++++++++++++++++++++++++++++++++++++++++++++",
"++++++++++++++          ++++++++++++++++++++++++++++++++++++++++",
"++++++++++++++          ++++++++++++++++++++++++++++++++++++++++",
"++++++++      ..........    ++++++++++++++++++++++++++++++++++++",
"++++++++      ..........    ++++++++++++++++++++++++++++++++++++",
"++++++    ................  ++++++++++++++++++++++++++++++++++++",
"++++++    ................  ++++++++++++++++++++++++++++++++++++",
"++++  OOOO  ................  ++++++++++++++++++++++++++++++++++",
"++++  OOOO  ................  ++++++++++++++++++++++++++++++++++",
"++++  OOOOOO  ..............    ++++++++++++++++++++++++++++++++",
"++++  OOOOOO  ..............    ++++++++++++++++++++++++++++++++",
"++++  OOOOOO  ..........    OOOO  ++++++++++++++++++++++++++++++",
"++++  OOOOOO  ..........    OOOO  ++++++++++++++++++++++++++++++",
"++++  OOOOOO  ..........    OOOO  ++++++++++++++++++++++++++++++",
"++++++      ++  ......  OOOOOOOO    ++++++++++++++++++++++++++++",
"++++++      ++  ......  OOOOOOOO    ++++++++++++++++++++++++++++",
"++++++++++++++  ....  OOOOOO    oooo    ++++++++++++++++++++++++",
"++++++++++++++  ....  OOOOOO    oooo    ++++++++++++++++++++++++",
"++++++++++++++++    OOOO    oooooooooooo  ++++++++++++++++++++++",
"++++++++++++++++    OOOO    oooooooooooo  ++++++++++++++++++++++",
"++++++++++++++++  OOOO  oooooooooooooooooo  ++++++++++++++++++++",
"++++++++++++++++  OOOO  oooooooooooooooooo  ++++++++++++++++++++",
"++++++++++++++++  OO  ooooXXXXooooooooXXXXoo  ++++++++++++++++++",
"++++++++++++++++  OO  ooooXXXXooooooooXXXXoo  ++++++++++++++++++",
"++++++++++++++++++  ooooOOXXXXOOooooOOXXXXOO  ++++++++++++++++++",
"++++++++++++++++++  ooooOOXXXXOOooooOOXXXXOO  ++++++++++++++++++",
"++++++++++++++++++  ooooOOOOOOOOooooOOOOOOOO  ++++++++++++++++++",
"++++++++++++++++++  ooooOOOOOOOOooooOOOOOOOO  ++++++++++++++++++",
"++++++++++++++++  ooooooOOOOOOOOooooOOOOOOOOoo  ++++++++++++++++",
"++++++++++++++++  ooooooOOOOOOOOooooOOOOOOOOoo  ++++++++++++++++",
"++++++++++++++++  ooooooooOOOOooooooooOOOOoooo  ++++++++++++++++",
"++++++++++++++++  ooooooooOOOOooooooooOOOOoooo  ++++++++++++++++",
"++++++++++++++++  oooooooooooooooooooooooooooo  ++++++++++++++++",
"++++++++++++++++  oooooooooooooooooooooooooooo  ++++++++++++++++",
"++++++++++++++++  oooooooooooooooooooooooooooo  ++++++++++++++++",
"++++++++++++++++  oooooooooooooooooooooooooooo  ++++++++++++++++",
"++++++++++++++++  oooooooooooooooooooooooooooo  ++++++++++++++++",
"++++++++++++++++  oooooooooooooooooooooooooooo  ++++++++++++++++",
"++++++++++++++++  oooooooooooooooooooooooooooo  ++++++++++++++++",
"++++++++++++++++  oooo  oooooo    oooooo  oooo  ++++++++++++++++",
"++++++++++++++++  oooo  oooooo    oooooo  oooo  ++++++++++++++++",
"++++++++++++++++  oo  ++  oooo    oooo  ++  oo  ++++++++++++++++",
"++++++++++++++++  oo  ++  oooo    oooo  ++  oo  ++++++++++++++++",
"++++++++++++++++++  ++++++    ++++    ++++++  ++++++++++++++++++",
"++++++++++++++++++  ++++++    ++++    ++++++  ++++++++++++++++++",
"++++++++++++++++++++++++++++++++++++++++++++++++++++++++++++++++",
"++++++++++++++++++++++++++++++++++++++++++++++++++++++++++++++++",
"++++++++++++++++++++++++++++++++++++++++++++++++++++++++++++++++",
"++++++++++++++++++++++++++++++++++++++++++++++++++++++++++++++++",
"++++++++++++++++++++++++++++++++++++++++++++++++++++++++++++++++",
"++++++++++++++++++++++++++++++++++++++++++++++++++++++++++++++++",
"++++++++++++++++++++++++++++++++++++++++++++++++++++++++++++++++",
"++++++++++++++++++++++++++++++++++++++++++++++++++++++++++++++++",
"++++++++++++++++++++++++++++++++++++++++++++++++++++++++++++++++",
"++++++++++++++++++++++++++++++++++++++++++++++++++++++++++++++++",
"++++++++++++++++++++++++++++++++++++++++++++++++++++++++++++++++",
"++++++++++++++++++++++++++++++++++++++++++++++++++++++++++++++++"
};
