/* XPM */
static char *result[] = {
/* columns rows colors chars-per-pixel */
"64 64 6 1 ",
"  c black",
". c #FF7F00",
"X c #D4423E",
"o c navy",
"O c white",
"+ c None",
/* pixels */
"++++++++++++++++++++++++++++++++++++++++++++++++++++++++++++++++",
"++++++++++++++++++++++++++++++++++++++++++++++++++++++++++++++++",
"++++++++++++++++++++++++++++++++++++++++++++++++++++++++++++++++",
"++++++++++++++++++++++++++++++++++++++++++++++++++++++++++++++++",
"++++++++++++++++++++++++++++++++++++++++++++++++++++++++++++++++",
"++++++++++++++++++++++++++++++++++++++++++++++++++++++++++++++++",
"++++++++++++++++++++++++++++++++++++++++++++++++++++++++++++++++",
"++++++++++++++++++++++++++++++++++++++++++++++++++++++++++++++++",
"++++++++++++++          ++++++++++++++++++++++++++++++++++++++++",
"++++++++++++++          ++++++++++++++++++++++++++++++++++++++++",
"++++++++      XXXXXXXXXX    ++++++++++++++++++++++++++++++++++++",
"++++++++      XXXXXXXXXX    ++++++++++++++++++++++++++++++++++++",
"++++++    XXXXXXXXXXXXXXXX  ++++++++++++++++++++++++++++++++++++",
"++++++    XXXXXXXXXXXXXXXX  ++++++++++++++++++++++++++++++++++++",
"++++  OOOO  XXXXXXXXXXXXXXXX  ++++++++++++++++++++++++++++++++++",
"++++  OOOO  XXXXXXXXXXXXXXXX  ++++++++++++++++++++++++++++++++++",
"++++  OOOOOO  XXXXXXXXXXXXXX    ++++++++++++++++++++++++++++++++",
"++++  OOOOOO  XXXXXXXXXXXXXX    ++++++++++++++++++++++++++++++++",
"++++  OOOOOO  XXXXXXXXXX    OOOO  ++++++++++++++++++++++++++++++",
"++++  OOOOOO  XXXXXXXXXX    OOOO  ++++++++++++++++++++++++++++++",
"++++  OOOOOO  XXXXXXXXXX    OOOO  ++++++++++++++++++++++++++++++",
"++++++      ++  XXXXXX  OOOOOOOO    ++++++++++++++++++++++++++++",
"++++++      ++  XXXXXX  OOOOOOOO    ++++++++++++++++++++++++++++",
"++++++++++++++  XXXX  OOOOOO    ....    ++++++++++++++++++++++++",
"++++++++++++++  XXXX  OOOOOO    ....    ++++++++++++++++++++++++",
"++++++++++++++++    OOOO    ............  ++++++++++++++++++++++",
"++++++++++++++++    OOOO    ............  ++++++++++++++++++++++",
"++++++++++++++++  OOOO  ..................  ++++++++++++++++++++",
"++++++++++++++++  OOOO  ..................  ++++++++++++++++++++",
"++++++++++++++++  OO  ....OOOO........OOOO..  ++++++++++++++++++",
"++++++++++++++++  OO  ....OOOO........OOOO..  ++++++++++++++++++",
"++++++++++++++++++  ....OOOOOOOO....OOOOOOOO  ++++++++++++++++++",
"++++++++++++++++++  ....OOOOOOOO....OOOOOOOO  ++++++++++++++++++",
"++++++++++++++++++  ....ooooOOOO....ooooOOOO  ++++++++++++++++++",
"++++++++++++++++++  ....ooooOOOO....ooooOOOO  ++++++++++++++++++",
"++++++++++++++++  ......ooooOOOO....ooooOOOO..  ++++++++++++++++",
"++++++++++++++++  ......ooooOOOO....ooooOOOO..  ++++++++++++++++",
"++++++++++++++++  ........OOOO........OOOO....  ++++++++++++++++",
"++++++++++++++++  ........OOOO........OOOO....  ++++++++++++++++",
"++++++++++++++++  ............................  ++++++++++++++++",
"++++++++++++++++  ............................  ++++++++++++++++",
"++++++++++++++++  ............................  ++++++++++++++++",
"++++++++++++++++  ............................  ++++++++++++++++",
"++++++++++++++++  ............................  ++++++++++++++++",
"++++++++++++++++  ............................  ++++++++++++++++",
"++++++++++++++++  ............................  ++++++++++++++++",
"++++++++++++++++  ....  ......    ......  ....  ++++++++++++++++",
"++++++++++++++++  ....  ......    ......  ....  ++++++++++++++++",
"++++++++++++++++  ..  ++  ....    ....  ++  ..  ++++++++++++++++",
"++++++++++++++++  ..  ++  ....    ....  ++  ..  ++++++++++++++++",
"++++++++++++++++++  ++++++    ++++    ++++++  ++++++++++++++++++",
"++++++++++++++++++  ++++++    ++++    ++++++  ++++++++++++++++++",
"++++++++++++++++++++++++++++++++++++++++++++++++++++++++++++++++",
"++++++++++++++++++++++++++++++++++++++++++++++++++++++++++++++++",
"++++++++++++++++++++++++++++++++++++++++++++++++++++++++++++++++",
"++++++++++++++++++++++++++++++++++++++++++++++++++++++++++++++++",
"++++++++++++++++++++++++++++++++++++++++++++++++++++++++++++++++",
"++++++++++++++++++++++++++++++++++++++++++++++++++++++++++++++++",
"++++++++++++++++++++++++++++++++++++++++++++++++++++++++++++++++",
"++++++++++++++++++++++++++++++++++++++++++++++++++++++++++++++++",
"++++++++++++++++++++++++++++++++++++++++++++++++++++++++++++++++",
"++++++++++++++++++++++++++++++++++++++++++++++++++++++++++++++++",
"++++++++++++++++++++++++++++++++++++++++++++++++++++++++++++++++",
"++++++++++++++++++++++++++++++++++++++++++++++++++++++++++++++++"
};
