/* XPM */
static char *result[] = {
/* columns rows colors chars-per-pixel */
"64 64 6 1 ",
"  c black",
". c #D4423E",
"X c #FDEE00",
"o c navy",
"O c white",
"+ c None",
/* pixels */
"++++++++++++++++++++++++++++++++++++++++++++++++++++++++++++++++",
"++++++++++++++++++++++++++++++++++++++++++++++++++++++++++++++++",
"++++++++++++++++++++++++++++++++++++++++++++++++++++++++++++++++",
"++++++++++++++++++++++++++++++++++++++++++++++++++++++++++++++++",
"++++++++++++++++++++++++++++++++++++++++++++++++++++++++++++++++",
"++++++++++++++++++++++++++++++++++++++++++++++++++++++++++++++++",
"++++++++++++++++++++++++++++++++++++++++++++++++++++++++++++++++",
"++++++++++++++++++++++++++++++++++++++++++++++++++++++++++++++++",
"++++++++++++++++++++++++++++++++++++++++++++++++++++++++++++++++",
"++++++++++++++++++++++++++++++++++++++++++++++++++++++++++++++++",
"++++++++++++++++++++++++++++++++++++++++++++++++++++++++++++++++",
"++++++++++++++++++++++++++++++++++++++++++++++++++++++++++++++++",
"++++++++++++++++++      ++++++++++++++++++++++++++++++++++++++++",
"++++++++++++++++++      ++++++++++++++++++++++++++++++++++++++++",
"++++++++++++++    ......    ++++++++++++++++++++++++++++++++++++",
"++++++++++++++    ......    ++++++++++++++++++++++++++++++++++++",
"++++++++++++  ..............  ++++++++++++++++++++++++++++++++++",
"++++++++++++  ..............  ++++++++++++++++++++++++++++++++++",
"++++++++++  ................    ++++++++++++++++++++++++++++++++",
"++++++++++  ................    ++++++++++++++++++++++++++++++++",
"++++++++++  ............    OOOO  ++++++++++++++++++++++++++++++",
"++++++++++  ............    OOOO  ++++++++++++++++++++++++++++++",
"++++++++  ............  OOOOOOOO    ++++++++++++++++++++++++++++",
"++++++++  ............  OOOOOOOO    ++++++++++++++++++++++++++++",
"++++++    ..........  OOOOOO    XXXX    ++++++++++++++++++++++++",
"++++++    ..........  OOOOOO    XXXX    ++++++++++++++++++++++++",
"++++  OOOO  ....    OOOO    XXXXXXXXXXXX  ++++++++++++++++++++++",
"++++  OOOO  ....    OOOO    XXXXXXXXXXXX  ++++++++++++++++++++++",
"++++  OOOOOO      OOOO  XXXXXXXXXXXXXXXXXX  ++++++++++++++++++++",
"++++  OOOOOO      OOOO  XXXXXXXXXXXXXXXXXX  ++++++++++++++++++++",
"++++  OOOOOO  ++  OO  XXXXOOOOXXXXXXXXOOOOXX  ++++++++++++++++++",
"++++  OOOOOO  ++  OO  XXXXOOOOXXXXXXXXOOOOXX  ++++++++++++++++++",
"++++++      ++++++  XXXXOOOOOOOOXXXXOOOOOOOO  ++++++++++++++++++",
"++++++      ++++++  XXXXOOOOOOOOXXXXOOOOOOOO  ++++++++++++++++++",
"++++++++++++++++++  XXXXOOOOooooXXXXOOOOoooo  ++++++++++++++++++",
"++++++++++++++++++  XXXXOOOOooooXXXXOOOOoooo  ++++++++++++++++++",
"++++++++++++++++  XXXXXXOOOOooooXXXXOOOOooooXX  ++++++++++++++++",
"++++++++++++++++  XXXXXXOOOOooooXXXXOOOOooooXX  ++++++++++++++++",
"++++++++++++++++  XXXXXXXXOOOOXXXXXXXXOOOOXXXX  ++++++++++++++++",
"++++++++++++++++  XXXXXXXXOOOOXXXXXXXXOOOOXXXX  ++++++++++++++++",
"++++++++++++++++  XXXXXXXXXXXXXXXXXXXXXXXXXXXX  ++++++++++++++++",
"++++++++++++++++  XXXXXXXXXXXXXXXXXXXXXXXXXXXX  ++++++++++++++++",
"++++++++++++++++  XXXXXXXXXXXXXXXXXXXXXXXXXXXX  ++++++++++++++++",
"++++++++++++++++  XXXXXXXXXXXXXXXXXXXXXXXXXXXX  ++++++++++++++++",
"++++++++++++++++  XXXXXXXXXXXXXXXXXXXXXXXXXXXX  ++++++++++++++++",
"++++++++++++++++  XXXXXXXXXXXXXXXXXXXXXXXXXXXX  ++++++++++++++++",
"++++++++++++++++  XXXX  XXXXXX    XXXXXX  XXXX  ++++++++++++++++",
"++++++++++++++++  XXXX  XXXXXX    XXXXXX  XXXX  ++++++++++++++++",
"++++++++++++++++  XX  ++  XXXX    XXXX  ++  XX  ++++++++++++++++",
"++++++++++++++++  XX  ++  XXXX    XXXX  ++  XX  ++++++++++++++++",
"++++++++++++++++++  ++++++    ++++    ++++++  ++++++++++++++++++",
"++++++++++++++++++  ++++++    ++++    ++++++  ++++++++++++++++++",
"++++++++++++++++++++++++++++++++++++++++++++++++++++++++++++++++",
"++++++++++++++++++++++++++++++++++++++++++++++++++++++++++++++++",
"++++++++++++++++++++++++++++++++++++++++++++++++++++++++++++++++",
"++++++++++++++++++++++++++++++++++++++++++++++++++++++++++++++++",
"++++++++++++++++++++++++++++++++++++++++++++++++++++++++++++++++",
"++++++++++++++++++++++++++++++++++++++++++++++++++++++++++++++++",
"++++++++++++++++++++++++++++++++++++++++++++++++++++++++++++++++",
"++++++++++++++++++++++++++++++++++++++++++++++++++++++++++++++++",
"++++++++++++++++++++++++++++++++++++++++++++++++++++++++++++++++",
"++++++++++++++++++++++++++++++++++++++++++++++++++++++++++++++++",
"++++++++++++++++++++++++++++++++++++++++++++++++++++++++++++++++",
"++++++++++++++++++++++++++++++++++++++++++++++++++++++++++++++++"
};
