/* XPM */
static char *result[] = {
/* columns rows colors chars-per-pixel */
"64 64 6 1 ",
"  c black",
". c #D4423E",
"X c navy",
"o c BlueViolet",
"O c white",
"+ c None",
/* pixels */
"++++++++++++++++++++++++++++++++++++++++++++++++++++++++++++++++",
"++++++++++++++++++++++++++++++++++++++++++++++++++++++++++++++++",
"++++++++++++++++++++++++++++++++++++++++++++++++++++++++++++++++",
"++++++++++++++++++++++++++++++++++++++++++++++++++++++++++++++++",
"++++++++++++++++++++++++++++++++++++++++++++++++++++++++++++++++",
"++++++++++++++++++++++++++++++++++++++++++++++++++++++++++++++++",
"++++++++++++++++++++++++++++++++++++++++++++++++++++++++++++++++",
"++++++++++++++++++++++++++++++++++++++++++++++++++++++++++++++++",
"++++++++++++++++++++++++++++++++++++++++++++++++++++++++++++++++",
"++++++++++++++++++++++++++++++++++++++++++++++++++++++++++++++++",
"++++++++++++++++++++++++++++++++++++++++++++++++++++++++++++++++",
"++++++++++++++++++++++++++++++++++++++++++++++++++++++++++++++++",
"++++++++++++++++++      ++++++++++++++++++++++++++++++++++++++++",
"++++++++++++++++++      ++++++++++++++++++++++++++++++++++++++++",
"++++++++++++++    ......    ++++++++++++++++++++++++++++++++++++",
"++++++++++++++    ......    ++++++++++++++++++++++++++++++++++++",
"++++++++++++  ..............  ++++++++++++++++++++++++++++++++++",
"++++++++++++  ..............  ++++++++++++++++++++++++++++++++++",
"++++++++++  ................    ++++++++++++++++++++++++++++++++",
"++++++++++  ................    ++++++++++++++++++++++++++++++++",
"++++++++++  ............    OOOO  ++++++++++++++++++++++++++++++",
"++++++++++  ............    OOOO  ++++++++++++++++++++++++++++++",
"++++++++  ............  OOOOOOOO    ++++++++++++++++++++++++++++",
"++++++++  ............  OOOOOOOO    ++++++++++++++++++++++++++++",
"++++++    ..........  OOOOOO    oooo    ++++++++++++++++++++++++",
"++++++    ..........  OOOOOO    oooo    ++++++++++++++++++++++++",
"++++  OOOO  ....    OOOO    oooooooooooo  ++++++++++++++++++++++",
"++++  OOOO  ....    OOOO    oooooooooooo  ++++++++++++++++++++++",
"++++  OOOOOO      OOOO  oooooooooooooooooo  ++++++++++++++++++++",
"++++  OOOOOO      OOOO  oooooooooooooooooo  ++++++++++++++++++++",
"++++  OOOOOO  ++  OO  ooooOOOOooooooooOOOOoo  ++++++++++++++++++",
"++++  OOOOOO  ++  OO  ooooOOOOooooooooOOOOoo  ++++++++++++++++++",
"++++++      ++++++  ooooOOOOOOOOooooOOOOOOOO  ++++++++++++++++++",
"++++++      ++++++  ooooOOOOOOOOooooOOOOOOOO  ++++++++++++++++++",
"++++++++++++++++++  ooooOOOOOOOOooooOOOOOOOO  ++++++++++++++++++",
"++++++++++++++++++  ooooOOOOOOOOooooOOOOOOOO  ++++++++++++++++++",
"++++++++++++++++  ooooooOOXXXXOOooooOOXXXXOOoo  ++++++++++++++++",
"++++++++++++++++  ooooooOOXXXXOOooooOOXXXXOOoo  ++++++++++++++++",
"++++++++++++++++  ooooooooXXXXooooooooXXXXoooo  ++++++++++++++++",
"++++++++++++++++  ooooooooXXXXooooooooXXXXoooo  ++++++++++++++++",
"++++++++++++++++  oooooooooooooooooooooooooooo  ++++++++++++++++",
"++++++++++++++++  oooooooooooooooooooooooooooo  ++++++++++++++++",
"++++++++++++++++  oooooooooooooooooooooooooooo  ++++++++++++++++",
"++++++++++++++++  oooooooooooooooooooooooooooo  ++++++++++++++++",
"++++++++++++++++  oooooooooooooooooooooooooooo  ++++++++++++++++",
"++++++++++++++++  oooooooooooooooooooooooooooo  ++++++++++++++++",
"++++++++++++++++  oooo  oooooo    oooooo  oooo  ++++++++++++++++",
"++++++++++++++++  oooo  oooooo    oooooo  oooo  ++++++++++++++++",
"++++++++++++++++  oo  ++  oooo    oooo  ++  oo  ++++++++++++++++",
"++++++++++++++++  oo  ++  oooo    oooo  ++  oo  ++++++++++++++++",
"++++++++++++++++++  ++++++    ++++    ++++++  ++++++++++++++++++",
"++++++++++++++++++  ++++++    ++++    ++++++  ++++++++++++++++++",
"++++++++++++++++++++++++++++++++++++++++++++++++++++++++++++++++",
"++++++++++++++++++++++++++++++++++++++++++++++++++++++++++++++++",
"++++++++++++++++++++++++++++++++++++++++++++++++++++++++++++++++",
"++++++++++++++++++++++++++++++++++++++++++++++++++++++++++++++++",
"++++++++++++++++++++++++++++++++++++++++++++++++++++++++++++++++",
"++++++++++++++++++++++++++++++++++++++++++++++++++++++++++++++++",
"++++++++++++++++++++++++++++++++++++++++++++++++++++++++++++++++",
"++++++++++++++++++++++++++++++++++++++++++++++++++++++++++++++++",
"++++++++++++++++++++++++++++++++++++++++++++++++++++++++++++++++",
"++++++++++++++++++++++++++++++++++++++++++++++++++++++++++++++++",
"++++++++++++++++++++++++++++++++++++++++++++++++++++++++++++++++",
"++++++++++++++++++++++++++++++++++++++++++++++++++++++++++++++++"
};
